<?xml version="1.0" encoding="UTF-8" standalone="no" ?>
<!DOCTYPE sesx>
<sesx version="1.4">

  <session appBuild="10.1.1.11" appVersion="10.1" audioChannelType="stereo" bitDepth="32" duration="5808000" sampleRate="48000">
    <name>Untitled Session 1_20180521T123837.144316.sesx</name>
    <tracks>
      <audioTrack automationLaneOpenState="false" id="10001" index="1" select="false" visible="true">
        <trackParameters trackHeight="108" trackHue="-1" trackMinimized="false">
          <name>Alphabet</name>
        </trackParameters>
        <trackAudioParameters audioChannelType="stereo" automationMode="1" monitoring="false" recordArmed="false" solo="false" soloSafe="false">
          <trackOutput outputID="10000" type="trackID"/>
          <trackInput inputID="2"/>
          <component componentGuid="b88c6ff1-c003-4f97-a735-39b1f4c5c8b7" componentID="Audition.Fader" id="trackFader" name="volume" powered="true">
            <parameter index="0" name="volume" parameterValue="1"/>
            <parameter index="1" name="static gain" parameterValue="1"/>
          </component>
          <component componentGuid="30001925-c9ca-4d6a-9df6-456badc24518" componentID="Audition.Mute" id="trackMute" name="Mute" powered="true">
            <parameter index="0" parameterValue="0"/>
            <parameter index="1" name="mute" parameterValue="1"/>
          </component>
          <component componentGuid="68b77ba4-75bb-4941-91dd-1d95ac0cb7cb" componentID="Audition.StereoPanner" id="trackPan" name="StereoPanner" powered="true">
            <parameter index="0" name="Pan" parameterValue="0"/>
          </component>
          <component componentGuid="06b5038c-cc4d-4089-bbf1-89cfe74336b3" componentID="Audition.EQ" id="trackEQ" name="EQ" powered="false">
            <parameter index="0" name="Low Shelf Frequency" parameterValue="0.000834"/>
            <parameter index="1" name="Low Shelf Gain" parameterValue="0.5"/>
            <parameter index="2" name="High Shelf Frequency" parameterValue="0.7497915"/>
            <parameter index="3" name="High Shelf Gain" parameterValue="0.5"/>
            <parameter index="4" name="EQ Band 1 Center Frequency" parameterValue="0.001251"/>
            <parameter index="5" name="EQ Band 1 Q" parameterValue="0.0002"/>
            <parameter index="6" name="EQ Band 1 Gain" parameterValue="0.5"/>
            <parameter index="7" name="EQ Band 1 Enable" parameterValue="1"/>
            <parameter index="8" name="EQ Band 2 Center Frequency" parameterValue="0.0075063"/>
            <parameter index="9" name="EQ Band 2 Q" parameterValue="0.0002"/>
            <parameter index="10" name="EQ Band 2 Gain" parameterValue="0.5"/>
            <parameter index="11" name="EQ Band 2 Enable" parameterValue="1"/>
            <parameter index="12" name="EQ Band 3 Center Frequency" parameterValue="0.0325271"/>
            <parameter index="13" name="EQ Band 3 Q" parameterValue="0.0002"/>
            <parameter index="14" name="EQ Band 3 Gain" parameterValue="0.5"/>
            <parameter index="15" name="EQ Band 3 Enable" parameterValue="1"/>
            <parameter index="16" name="EQ Band 4 Center Frequency" parameterValue="0.1326105"/>
            <parameter index="17" name="EQ Band 4 Q" parameterValue="0.0002"/>
            <parameter index="18" name="EQ Band 4 Gain" parameterValue="0.5"/>
            <parameter index="19" name="EQ Band 4 Enable" parameterValue="1"/>
            <parameter index="20" name="EQ Band 5 Center Frequency" parameterValue="0.5329441"/>
            <parameter index="21" name="EQ Band 5 Q" parameterValue="0.0002"/>
            <parameter index="22" name="EQ Band 5 Gain" parameterValue="0.5"/>
            <parameter index="23" name="EQ Band 5 Enable" parameterValue="1"/>
            <parameter index="24" name="Master Gain" parameterValue="0.6666667"/>
            <parameter index="25" name="ConstantQ" parameterValue="1"/>
            <parameter index="26" name="Low Shelf Filter Order" parameterValue="0"/>
            <parameter index="27" name="High Shelf Filter Order" parameterValue="0"/>
            <parameter index="28" name="Ultra-Quiet Mode" parameterValue="0"/>
            <parameter index="29" name="Low Shelf Enable" parameterValue="1"/>
            <parameter index="30" name="High Shelf Enable" parameterValue="1"/>
            <parameter index="31" name="Original Sample Rate" parameterValue="0.25"/>
            <parameter index="32" name="EQ Band 1 Bandwidth" parameterValue="0.0025"/>
            <parameter index="33" name="EQ Band 2 Bandwidth" parameterValue="0.01"/>
            <parameter index="34" name="EQ Band 3 Bandwidth" parameterValue="0.04"/>
            <parameter index="35" name="EQ Band 4 Bandwidth" parameterValue="0.16"/>
            <parameter index="36" name="EQ Band 5 Bandwidth" parameterValue="0.64"/>
            <parameter index="37" name="High-Pass Filter Enable" parameterValue="0"/>
            <parameter index="38" name="High-Pass Cutoff Frequency" parameterValue="0"/>
            <parameter index="39" name="High-Pass Slope" parameterValue="0.4"/>
            <parameter index="40" name="Low-Pass Filter Enable" parameterValue="0"/>
            <parameter index="41" name="Low-Pass Cutoff Frequency" parameterValue="0.8331943"/>
            <parameter index="42" name="Low-Pass Slope" parameterValue="0.4"/>
            <parameter index="43" name="Bypass" parameterValue="0"/>
            <parameter index="44" name="LowGraphRange" parameterValue="1"/>
          </component>
        </trackAudioParameters>
        <editParameter parameterIndex="0" slotIndex="4294967280"/>
        <sendList>
          <sendSlot preFader="false" sendOutputID="0" slotIndex="0">
            <component componentGuid="b587ca7b-10c2-445f-ba99-4d9c305569a4" id="sendComponent" powered="false">
              <parameter index="0" name="Power On/Off" parameterValue="0"/>
              <parameter index="1" name="Level" parameterValue="0"/>
            </component>
            <component id="sendPan" powered="true"/>
          </sendSlot>
          <sendSlot preFader="false" sendOutputID="0" slotIndex="1">
            <component componentGuid="23c4d304-4867-4899-933d-3c03a51e2aa4" id="sendComponent" powered="false">
              <parameter index="0" name="Power On/Off" parameterValue="0"/>
              <parameter index="1" name="Level" parameterValue="0"/>
            </component>
            <component id="sendPan" powered="true"/>
          </sendSlot>
          <sendSlot preFader="false" sendOutputID="0" slotIndex="2">
            <component componentGuid="6a98927d-9c70-4a7a-b841-cc0ef7041d09" id="sendComponent" powered="false">
              <parameter index="0" name="Power On/Off" parameterValue="0"/>
              <parameter index="1" name="Level" parameterValue="0"/>
            </component>
            <component id="sendPan" powered="true"/>
          </sendSlot>
          <sendSlot preFader="false" sendOutputID="0" slotIndex="3">
            <component componentGuid="921a0cb9-b52f-4d2c-8d6a-fcd0bbcc47d9" id="sendComponent" powered="false">
              <parameter index="0" name="Power On/Off" parameterValue="0"/>
              <parameter index="1" name="Level" parameterValue="0"/>
            </component>
            <component id="sendPan" powered="true"/>
          </sendSlot>
          <sendSlot preFader="false" sendOutputID="0" slotIndex="4">
            <component componentGuid="5e946d7d-a2f0-49ae-aa22-ff773d0b034c" id="sendComponent" powered="false">
              <parameter index="0" name="Power On/Off" parameterValue="0"/>
              <parameter index="1" name="Level" parameterValue="0"/>
            </component>
            <component id="sendPan" powered="true"/>
          </sendSlot>
          <sendSlot preFader="false" sendOutputID="0" slotIndex="5">
            <component componentGuid="ec488f5d-398e-4270-a76a-a9cb1b2a1cec" id="sendComponent" powered="false">
              <parameter index="0" name="Power On/Off" parameterValue="0"/>
              <parameter index="1" name="Level" parameterValue="0"/>
            </component>
            <component id="sendPan" powered="true"/>
          </sendSlot>
          <sendSlot preFader="false" sendOutputID="0" slotIndex="6">
            <component componentGuid="4600cb04-347f-4bfd-ac4a-c1f50ffe19f1" id="sendComponent" powered="false">
              <parameter index="0" name="Power On/Off" parameterValue="0"/>
              <parameter index="1" name="Level" parameterValue="0"/>
            </component>
            <component id="sendPan" powered="true"/>
          </sendSlot>
          <sendSlot preFader="false" sendOutputID="0" slotIndex="7">
            <component componentGuid="567ea314-c029-41d0-8954-ff413769deb8" id="sendComponent" powered="false">
              <parameter index="0" name="Power On/Off" parameterValue="0"/>
              <parameter index="1" name="Level" parameterValue="0"/>
            </component>
            <component id="sendPan" powered="true"/>
          </sendSlot>
          <sendSlot preFader="false" sendOutputID="0" slotIndex="8">
            <component componentGuid="140ca35c-0772-4cc9-ae9d-b45a1aecfc19" id="sendComponent" powered="false">
              <parameter index="0" name="Power On/Off" parameterValue="0"/>
              <parameter index="1" name="Level" parameterValue="0"/>
            </component>
            <component id="sendPan" powered="true"/>
          </sendSlot>
          <sendSlot preFader="false" sendOutputID="0" slotIndex="9">
            <component componentGuid="15d811dc-4651-424a-a23c-e9d10a379e85" id="sendComponent" powered="false">
              <parameter index="0" name="Power On/Off" parameterValue="0"/>
              <parameter index="1" name="Level" parameterValue="0"/>
            </component>
            <component id="sendPan" powered="true"/>
          </sendSlot>
          <sendSlot preFader="false" sendOutputID="0" slotIndex="10">
            <component componentGuid="73cbb6b5-da36-4c39-8b44-30cd7d950b3a" id="sendComponent" powered="false">
              <parameter index="0" name="Power On/Off" parameterValue="0"/>
              <parameter index="1" name="Level" parameterValue="0"/>
            </component>
            <component id="sendPan" powered="true"/>
          </sendSlot>
          <sendSlot preFader="false" sendOutputID="0" slotIndex="11">
            <component componentGuid="0928ff8d-e46b-4d54-9f41-f54387be13c2" id="sendComponent" powered="false">
              <parameter index="0" name="Power On/Off" parameterValue="0"/>
              <parameter index="1" name="Level" parameterValue="0"/>
            </component>
            <component id="sendPan" powered="true"/>
          </sendSlot>
          <sendSlot preFader="false" sendOutputID="0" slotIndex="12">
            <component componentGuid="e7c02969-b97d-47b7-8350-d1bd01c765f5" id="sendComponent" powered="false">
              <parameter index="0" name="Power On/Off" parameterValue="0"/>
              <parameter index="1" name="Level" parameterValue="0"/>
            </component>
            <component id="sendPan" powered="true"/>
          </sendSlot>
          <sendSlot preFader="false" sendOutputID="0" slotIndex="13">
            <component componentGuid="884a9d05-1687-4fb9-a5c0-65bc05bd3930" id="sendComponent" powered="false">
              <parameter index="0" name="Power On/Off" parameterValue="0"/>
              <parameter index="1" name="Level" parameterValue="0"/>
            </component>
            <component id="sendPan" powered="true"/>
          </sendSlot>
          <sendSlot preFader="false" sendOutputID="0" slotIndex="14">
            <component componentGuid="ec1d6f5e-a673-4c16-b31c-83e970a1b178" id="sendComponent" powered="false">
              <parameter index="0" name="Power On/Off" parameterValue="0"/>
              <parameter index="1" name="Level" parameterValue="0"/>
            </component>
            <component id="sendPan" powered="true"/>
          </sendSlot>
          <sendSlot preFader="false" sendOutputID="0" slotIndex="15">
            <component componentGuid="e8c39659-b30e-4506-8083-96464215cfb6" id="sendComponent" powered="false">
              <parameter index="0" name="Power On/Off" parameterValue="0"/>
              <parameter index="1" name="Level" parameterValue="0"/>
            </component>
            <component id="sendPan" powered="true"/>
          </sendSlot>
        </sendList>
        <audioClip clipAutoCrossfade="true" crossFadeHeadClipID="-1" crossFadeTailClipID="-1" endPoint="542980" fileID="0" hue="-1" id="0" lockedInTime="false" looped="false" name="Alphabet_007" offline="false" select="false" sourceInPoint="25339" sourceOutPoint="568319" startPoint="0" zOrder="160">
          <component componentGuid="c5fc8c49-3c48-4f84-a2c2-045213207a0f" componentID="Audition.Fader" id="clipGain" name="volume" powered="true">
            <parameter index="0" name="volume" parameterValue="1"/>
            <parameter index="1" name="static gain" parameterValue="1"/>
          </component>
          <component componentGuid="6faa7b73-1297-45ad-b00a-8acf0883720b" componentID="Audition.Mute" id="clipMute" name="Mute" powered="true">
            <parameter index="0" parameterValue="0"/>
            <parameter index="1" name="mute" parameterValue="0"/>
          </component>
          <component componentGuid="84ccd0e6-5118-4825-9163-ddc94f7f9c5e" componentID="Audition.StereoPanner" id="clipPan" name="StereoPanner" powered="true">
            <parameter index="0" name="Pan" parameterValue="0"/>
          </component>
          <fadeIn crossFadeLinkType="linkedAsymmetric" endPoint="0" shape="0" startPoint="0" type="cosine"/>
          <fadeOut crossFadeLinkType="linkedAsymmetric" endPoint="542980" shape="0" startPoint="542980" type="cosine"/>
          <editParameter parameterIndex="0" slotIndex="4294967281"/>
          <editParameter parameterIndex="0" slotIndex="4294967280"/>
          <channelMap>
            <channel index="0" sourceIndex="0"/>
          </channelMap>
        </audioClip>
        <audioClip clipAutoCrossfade="true" crossFadeHeadClipID="-1" crossFadeTailClipID="-1" endPoint="618997" fileID="0" hue="-1" id="1" lockedInTime="false" looped="false" name="Alphabet_007" offline="false" select="false" sourceInPoint="568319" sourceOutPoint="644336" startPoint="542980" zOrder="101">
          <component componentGuid="6d4517af-fa7c-4d63-85cf-cb896fe3ad24" componentID="Audition.Fader" id="clipGain" name="volume" powered="true">
            <parameter index="0" name="volume" parameterValue="1"/>
            <parameter index="1" name="static gain" parameterValue="1"/>
          </component>
          <component componentGuid="3b464d59-9411-4957-84e9-af5c91f9af59" componentID="Audition.Mute" id="clipMute" name="Mute" powered="true">
            <parameter index="0" parameterValue="0"/>
            <parameter index="1" name="mute" parameterValue="0"/>
          </component>
          <component componentGuid="c1a4d5fa-f99a-40c1-baa4-2202b2d0c6dd" componentID="Audition.StereoPanner" id="clipPan" name="StereoPanner" powered="true">
            <parameter index="0" name="Pan" parameterValue="0"/>
          </component>
          <fadeIn crossFadeLinkType="linkedAsymmetric" endPoint="0" shape="0" startPoint="0" type="cosine"/>
          <fadeOut crossFadeLinkType="linkedAsymmetric" endPoint="76017" shape="0" startPoint="76017" type="cosine"/>
          <editParameter parameterIndex="0" slotIndex="4294967281"/>
          <editParameter parameterIndex="0" slotIndex="4294967280"/>
          <channelMap>
            <channel index="0" sourceIndex="0"/>
          </channelMap>
        </audioClip>
        <audioClip clipAutoCrossfade="true" crossFadeHeadClipID="-1" crossFadeTailClipID="-1" endPoint="1869119" fileID="0" hue="-1" id="2" lockedInTime="false" looped="false" name="Alphabet_007" offline="false" select="false" sourceInPoint="644336" sourceOutPoint="1894458" startPoint="618997" zOrder="159">
          <component componentGuid="84e7dc91-2c0c-4cc8-ae00-7f2e4ee5c097" componentID="Audition.Fader" id="clipGain" name="volume" powered="true">
            <parameter index="0" name="volume" parameterValue="1"/>
            <parameter index="1" name="static gain" parameterValue="1"/>
          </component>
          <component componentGuid="ac84075a-0803-4700-a1ba-07a7cbfe9e18" componentID="Audition.Mute" id="clipMute" name="Mute" powered="true">
            <parameter index="0" parameterValue="0"/>
            <parameter index="1" name="mute" parameterValue="0"/>
          </component>
          <component componentGuid="3352ca44-9d0a-41f6-a785-5ad553b5e18a" componentID="Audition.StereoPanner" id="clipPan" name="StereoPanner" powered="true">
            <parameter index="0" name="Pan" parameterValue="0"/>
          </component>
          <fadeIn crossFadeLinkType="linkedAsymmetric" endPoint="0" shape="0" startPoint="0" type="cosine"/>
          <fadeOut crossFadeLinkType="linkedAsymmetric" endPoint="1250122" shape="0" startPoint="1250122" type="cosine"/>
          <editParameter parameterIndex="0" slotIndex="4294967281"/>
          <editParameter parameterIndex="0" slotIndex="4294967280"/>
          <channelMap>
            <channel index="0" sourceIndex="0"/>
          </channelMap>
        </audioClip>
        <audioClip clipAutoCrossfade="true" crossFadeHeadClipID="-1" crossFadeTailClipID="-1" endPoint="1943326" fileID="0" hue="-1" id="3" lockedInTime="false" looped="false" name="Alphabet_007" offline="false" select="false" sourceInPoint="1894458" sourceOutPoint="1968665" startPoint="1869119" zOrder="106">
          <component componentGuid="8d79be5d-604c-43e0-a224-b206ddf99632" componentID="Audition.Fader" id="clipGain" name="volume" powered="true">
            <parameter index="0" name="volume" parameterValue="1"/>
            <parameter index="1" name="static gain" parameterValue="1"/>
          </component>
          <component componentGuid="89662824-db89-43ee-92da-7e8514a08fe1" componentID="Audition.Mute" id="clipMute" name="Mute" powered="true">
            <parameter index="0" parameterValue="0"/>
            <parameter index="1" name="mute" parameterValue="0"/>
          </component>
          <component componentGuid="da56712e-68c8-4de7-a76e-6f88c6f79e3b" componentID="Audition.StereoPanner" id="clipPan" name="StereoPanner" powered="true">
            <parameter index="0" name="Pan" parameterValue="0"/>
          </component>
          <fadeIn crossFadeLinkType="linkedAsymmetric" endPoint="0" shape="0" startPoint="0" type="cosine"/>
          <fadeOut crossFadeLinkType="linkedAsymmetric" endPoint="74207" shape="0" startPoint="74207" type="cosine"/>
          <editParameter parameterIndex="0" slotIndex="4294967281"/>
          <editParameter parameterIndex="0" slotIndex="4294967280"/>
          <channelMap>
            <channel index="0" sourceIndex="0"/>
          </channelMap>
        </audioClip>
        <audioClip clipAutoCrossfade="true" crossFadeHeadClipID="-1" crossFadeTailClipID="-1" endPoint="2210866" fileID="0" hue="-1" id="4" lockedInTime="false" looped="false" name="Alphabet_007" offline="false" select="false" sourceInPoint="1968665" sourceOutPoint="2236205" startPoint="1943326" zOrder="106">
          <component componentGuid="f37e7d31-82c0-48b9-b6c0-1947baf4d062" componentID="Audition.Fader" id="clipGain" name="volume" powered="true">
            <parameter index="0" name="volume" parameterValue="1"/>
            <parameter index="1" name="static gain" parameterValue="1"/>
          </component>
          <component componentGuid="9c18d93c-fff4-408b-80c8-063c2f80488e" componentID="Audition.Mute" id="clipMute" name="Mute" powered="true">
            <parameter index="0" parameterValue="0"/>
            <parameter index="1" name="mute" parameterValue="0"/>
          </component>
          <component componentGuid="b3cfd9f8-3a65-4728-a831-3386760deeca" componentID="Audition.StereoPanner" id="clipPan" name="StereoPanner" powered="true">
            <parameter index="0" name="Pan" parameterValue="0"/>
          </component>
          <fadeIn crossFadeLinkType="linkedAsymmetric" endPoint="0" shape="0" startPoint="0" type="cosine"/>
          <fadeOut crossFadeLinkType="linkedAsymmetric" endPoint="267540" shape="0" startPoint="267540" type="cosine"/>
          <editParameter parameterIndex="0" slotIndex="4294967281"/>
          <editParameter parameterIndex="0" slotIndex="4294967280"/>
          <channelMap>
            <channel index="0" sourceIndex="0"/>
          </channelMap>
        </audioClip>
        <audioClip clipAutoCrossfade="true" crossFadeHeadClipID="-1" crossFadeTailClipID="-1" endPoint="3183131" fileID="1" hue="-1" id="5" lockedInTime="false" looped="false" name="Alphabet_008" offline="false" select="false" sourceInPoint="0" sourceOutPoint="908613" startPoint="2274518" zOrder="102">
          <component componentGuid="6846d7c6-09d7-4276-9652-1a73533acad0" componentID="Audition.Fader" id="clipGain" name="volume" powered="true">
            <parameter index="0" name="volume" parameterValue="1"/>
            <parameter index="1" name="static gain" parameterValue="1"/>
          </component>
          <component componentGuid="b6926f9f-3c61-483a-85af-550d0ed106ac" componentID="Audition.Mute" id="clipMute" name="Mute" powered="true">
            <parameter index="0" parameterValue="0"/>
            <parameter index="1" name="mute" parameterValue="0"/>
          </component>
          <component componentGuid="d884d03b-a2c7-465e-a59e-781f93b0a376" componentID="Audition.StereoPanner" id="clipPan" name="StereoPanner" powered="true">
            <parameter index="0" name="Pan" parameterValue="0"/>
          </component>
          <fadeIn crossFadeLinkType="linkedAsymmetric" endPoint="0" shape="0" startPoint="0" type="cosine"/>
          <fadeOut crossFadeLinkType="linkedAsymmetric" endPoint="908613" shape="0" startPoint="908613" type="cosine"/>
          <take sourceInPoint="0"/>
          <editParameter parameterIndex="0" slotIndex="4294967281"/>
          <editParameter parameterIndex="0" slotIndex="4294967280"/>
          <channelMap>
            <channel index="0" sourceIndex="0"/>
          </channelMap>
        </audioClip>
        <audioClip clipAutoCrossfade="true" crossFadeHeadClipID="-1" crossFadeTailClipID="-1" endPoint="3235962" fileID="1" hue="-1" id="6" lockedInTime="false" looped="false" name="Alphabet_008" offline="false" select="false" sourceInPoint="908613" sourceOutPoint="961444" startPoint="3183131" zOrder="102">
          <component componentGuid="2c861f70-998d-4275-be70-8a3862115513" componentID="Audition.Fader" id="clipGain" name="volume" powered="true">
            <parameter index="0" name="volume" parameterValue="1"/>
            <parameter index="1" name="static gain" parameterValue="1"/>
          </component>
          <component componentGuid="2eeb274b-fe32-4834-9351-cd15f7d16c8b" componentID="Audition.Mute" id="clipMute" name="Mute" powered="true">
            <parameter index="0" parameterValue="0"/>
            <parameter index="1" name="mute" parameterValue="0"/>
          </component>
          <component componentGuid="9fe03956-49cb-43ce-8dcb-38c2a378f6f9" componentID="Audition.StereoPanner" id="clipPan" name="StereoPanner" powered="true">
            <parameter index="0" name="Pan" parameterValue="0"/>
          </component>
          <fadeIn crossFadeLinkType="linkedAsymmetric" endPoint="0" shape="0" startPoint="0" type="cosine"/>
          <fadeOut crossFadeLinkType="linkedAsymmetric" endPoint="52831" shape="0" startPoint="52831" type="cosine"/>
          <editParameter parameterIndex="0" slotIndex="4294967281"/>
          <editParameter parameterIndex="0" slotIndex="4294967280"/>
          <channelMap>
            <channel index="0" sourceIndex="0"/>
          </channelMap>
        </audioClip>
        <audioClip clipAutoCrossfade="true" crossFadeHeadClipID="-1" crossFadeTailClipID="-1" endPoint="4311265" fileID="2" hue="-1" id="7" lockedInTime="false" looped="false" name="Alphabet_009" offline="false" select="false" sourceInPoint="0" sourceOutPoint="1039595" startPoint="3271670" zOrder="105">
          <component componentGuid="6688b104-03e6-403b-9f80-19297cb8ab72" componentID="Audition.Fader" id="clipGain" name="volume" powered="true">
            <parameter index="0" name="volume" parameterValue="1"/>
            <parameter index="1" name="static gain" parameterValue="1"/>
          </component>
          <component componentGuid="9d67db7b-d254-4e3e-b623-ac8f5410f1c4" componentID="Audition.Mute" id="clipMute" name="Mute" powered="true">
            <parameter index="0" parameterValue="0"/>
            <parameter index="1" name="mute" parameterValue="0"/>
          </component>
          <component componentGuid="74fc79c5-8ceb-4191-8bcf-001ba5007dc9" componentID="Audition.StereoPanner" id="clipPan" name="StereoPanner" powered="true">
            <parameter index="0" name="Pan" parameterValue="0"/>
          </component>
          <fadeIn crossFadeLinkType="linkedAsymmetric" endPoint="0" shape="0" startPoint="0" type="cosine"/>
          <fadeOut crossFadeLinkType="linkedAsymmetric" endPoint="1039595" shape="0" startPoint="1039595" type="cosine"/>
          <take sourceInPoint="0"/>
          <editParameter parameterIndex="0" slotIndex="4294967281"/>
          <editParameter parameterIndex="0" slotIndex="4294967280"/>
          <channelMap>
            <channel index="0" sourceIndex="0"/>
          </channelMap>
        </audioClip>
        <audioClip clipAutoCrossfade="true" crossFadeHeadClipID="-1" crossFadeTailClipID="-1" endPoint="4724434" fileID="3" hue="-1" id="8" lockedInTime="false" looped="false" name="Alphabet_010" offline="false" select="false" sourceInPoint="0" sourceOutPoint="379129" startPoint="4345305" zOrder="104">
          <component componentGuid="41cc3604-aacb-4f1c-8086-d5cc9a4a332f" componentID="Audition.Fader" id="clipGain" name="volume" powered="true">
            <parameter index="0" name="volume" parameterValue="1"/>
            <parameter index="1" name="static gain" parameterValue="1"/>
          </component>
          <component componentGuid="eca5effc-95af-4b97-931c-ee7ab0eac55f" componentID="Audition.Mute" id="clipMute" name="Mute" powered="true">
            <parameter index="0" parameterValue="0"/>
            <parameter index="1" name="mute" parameterValue="0"/>
          </component>
          <component componentGuid="2b58f6df-2c12-42b5-90ee-07a9c4b82e27" componentID="Audition.StereoPanner" id="clipPan" name="StereoPanner" powered="true">
            <parameter index="0" name="Pan" parameterValue="0"/>
          </component>
          <fadeIn crossFadeLinkType="linkedAsymmetric" endPoint="0" shape="0" startPoint="0" type="cosine"/>
          <fadeOut crossFadeLinkType="linkedAsymmetric" endPoint="379129" shape="0" startPoint="379129" type="cosine"/>
          <take sourceInPoint="0"/>
          <editParameter parameterIndex="0" slotIndex="4294967281"/>
          <editParameter parameterIndex="0" slotIndex="4294967280"/>
          <channelMap>
            <channel index="0" sourceIndex="0"/>
          </channelMap>
        </audioClip>
      </audioTrack>
      <audioTrack automationLaneOpenState="false" id="10002" index="2" select="false" visible="true">
        <trackParameters trackHeight="108" trackHue="43.2210731506347656" trackMinimized="false">
          <name>Dialog 01 02</name>
        </trackParameters>
        <trackAudioParameters audioChannelType="stereo" automationMode="1" monitoring="false" recordArmed="false" solo="false" soloSafe="false">
          <trackOutput outputID="10000" type="trackID"/>
          <trackInput inputID="2"/>
          <component componentGuid="2c2be728-4177-4957-8edd-c91751d6689b" componentID="Audition.Fader" id="trackFader" name="volume" powered="true">
            <parameter index="0" name="volume" parameterValue="1"/>
            <parameter index="1" name="static gain" parameterValue="1"/>
          </component>
          <component componentGuid="1fa5f5d9-7954-466f-87e4-bb54f9c639cb" componentID="Audition.Mute" id="trackMute" name="Mute" powered="true">
            <parameter index="0" parameterValue="0"/>
            <parameter index="1" name="mute" parameterValue="1"/>
          </component>
          <component componentGuid="236db2a9-2a9b-4211-b71f-526e9d4546dd" componentID="Audition.StereoPanner" id="trackPan" name="StereoPanner" powered="true">
            <parameter index="0" name="Pan" parameterValue="0"/>
          </component>
          <component componentGuid="80f63a10-0d7a-4a1b-986a-5a26b21cd37b" componentID="Audition.EQ" id="trackEQ" name="EQ" powered="false">
            <parameter index="0" name="Low Shelf Frequency" parameterValue="0.000834"/>
            <parameter index="1" name="Low Shelf Gain" parameterValue="0.5"/>
            <parameter index="2" name="High Shelf Frequency" parameterValue="0.7497915"/>
            <parameter index="3" name="High Shelf Gain" parameterValue="0.5"/>
            <parameter index="4" name="EQ Band 1 Center Frequency" parameterValue="0.001251"/>
            <parameter index="5" name="EQ Band 1 Q" parameterValue="0.0002"/>
            <parameter index="6" name="EQ Band 1 Gain" parameterValue="0.5"/>
            <parameter index="7" name="EQ Band 1 Enable" parameterValue="1"/>
            <parameter index="8" name="EQ Band 2 Center Frequency" parameterValue="0.0075063"/>
            <parameter index="9" name="EQ Band 2 Q" parameterValue="0.0002"/>
            <parameter index="10" name="EQ Band 2 Gain" parameterValue="0.5"/>
            <parameter index="11" name="EQ Band 2 Enable" parameterValue="1"/>
            <parameter index="12" name="EQ Band 3 Center Frequency" parameterValue="0.0325271"/>
            <parameter index="13" name="EQ Band 3 Q" parameterValue="0.0002"/>
            <parameter index="14" name="EQ Band 3 Gain" parameterValue="0.5"/>
            <parameter index="15" name="EQ Band 3 Enable" parameterValue="1"/>
            <parameter index="16" name="EQ Band 4 Center Frequency" parameterValue="0.1326105"/>
            <parameter index="17" name="EQ Band 4 Q" parameterValue="0.0002"/>
            <parameter index="18" name="EQ Band 4 Gain" parameterValue="0.5"/>
            <parameter index="19" name="EQ Band 4 Enable" parameterValue="1"/>
            <parameter index="20" name="EQ Band 5 Center Frequency" parameterValue="0.5329441"/>
            <parameter index="21" name="EQ Band 5 Q" parameterValue="0.0002"/>
            <parameter index="22" name="EQ Band 5 Gain" parameterValue="0.5"/>
            <parameter index="23" name="EQ Band 5 Enable" parameterValue="1"/>
            <parameter index="24" name="Master Gain" parameterValue="0.6666667"/>
            <parameter index="25" name="ConstantQ" parameterValue="1"/>
            <parameter index="26" name="Low Shelf Filter Order" parameterValue="0"/>
            <parameter index="27" name="High Shelf Filter Order" parameterValue="0"/>
            <parameter index="28" name="Ultra-Quiet Mode" parameterValue="0"/>
            <parameter index="29" name="Low Shelf Enable" parameterValue="1"/>
            <parameter index="30" name="High Shelf Enable" parameterValue="1"/>
            <parameter index="31" name="Original Sample Rate" parameterValue="0.25"/>
            <parameter index="32" name="EQ Band 1 Bandwidth" parameterValue="0.0025"/>
            <parameter index="33" name="EQ Band 2 Bandwidth" parameterValue="0.01"/>
            <parameter index="34" name="EQ Band 3 Bandwidth" parameterValue="0.04"/>
            <parameter index="35" name="EQ Band 4 Bandwidth" parameterValue="0.16"/>
            <parameter index="36" name="EQ Band 5 Bandwidth" parameterValue="0.64"/>
            <parameter index="37" name="High-Pass Filter Enable" parameterValue="0"/>
            <parameter index="38" name="High-Pass Cutoff Frequency" parameterValue="0"/>
            <parameter index="39" name="High-Pass Slope" parameterValue="0.4"/>
            <parameter index="40" name="Low-Pass Filter Enable" parameterValue="0"/>
            <parameter index="41" name="Low-Pass Cutoff Frequency" parameterValue="0.8331943"/>
            <parameter index="42" name="Low-Pass Slope" parameterValue="0.4"/>
            <parameter index="43" name="Bypass" parameterValue="0"/>
            <parameter index="44" name="LowGraphRange" parameterValue="1"/>
          </component>
        </trackAudioParameters>
        <editParameter parameterIndex="0" slotIndex="4294967280"/>
        <sendList>
          <sendSlot preFader="false" sendOutputID="0" slotIndex="0">
            <component componentGuid="bf9fd175-371a-4cc7-9dad-d5a952ecc85f" id="sendComponent" powered="false">
              <parameter index="0" name="Power On/Off" parameterValue="0"/>
              <parameter index="1" name="Level" parameterValue="0"/>
            </component>
            <component id="sendPan" powered="true"/>
          </sendSlot>
          <sendSlot preFader="false" sendOutputID="0" slotIndex="1">
            <component componentGuid="446971ea-4c05-45c7-b416-1aab62ffae32" id="sendComponent" powered="false">
              <parameter index="0" name="Power On/Off" parameterValue="0"/>
              <parameter index="1" name="Level" parameterValue="0"/>
            </component>
            <component id="sendPan" powered="true"/>
          </sendSlot>
          <sendSlot preFader="false" sendOutputID="0" slotIndex="2">
            <component componentGuid="863e4e2b-986d-474b-953d-a36fe7ebe146" id="sendComponent" powered="false">
              <parameter index="0" name="Power On/Off" parameterValue="0"/>
              <parameter index="1" name="Level" parameterValue="0"/>
            </component>
            <component id="sendPan" powered="true"/>
          </sendSlot>
          <sendSlot preFader="false" sendOutputID="0" slotIndex="3">
            <component componentGuid="aee09d6b-7760-40b9-907d-79a4862e0b0c" id="sendComponent" powered="false">
              <parameter index="0" name="Power On/Off" parameterValue="0"/>
              <parameter index="1" name="Level" parameterValue="0"/>
            </component>
            <component id="sendPan" powered="true"/>
          </sendSlot>
          <sendSlot preFader="false" sendOutputID="0" slotIndex="4">
            <component componentGuid="0366aa97-9d85-44e5-8c7d-b07124f1aae4" id="sendComponent" powered="false">
              <parameter index="0" name="Power On/Off" parameterValue="0"/>
              <parameter index="1" name="Level" parameterValue="0"/>
            </component>
            <component id="sendPan" powered="true"/>
          </sendSlot>
          <sendSlot preFader="false" sendOutputID="0" slotIndex="5">
            <component componentGuid="53277a8b-96a3-45a4-9902-13e3ca7911f9" id="sendComponent" powered="false">
              <parameter index="0" name="Power On/Off" parameterValue="0"/>
              <parameter index="1" name="Level" parameterValue="0"/>
            </component>
            <component id="sendPan" powered="true"/>
          </sendSlot>
          <sendSlot preFader="false" sendOutputID="0" slotIndex="6">
            <component componentGuid="a0d81a94-eeb1-4ead-9a41-c225953be5e8" id="sendComponent" powered="false">
              <parameter index="0" name="Power On/Off" parameterValue="0"/>
              <parameter index="1" name="Level" parameterValue="0"/>
            </component>
            <component id="sendPan" powered="true"/>
          </sendSlot>
          <sendSlot preFader="false" sendOutputID="0" slotIndex="7">
            <component componentGuid="cd6b855b-5574-486e-9cb0-ab5abc32f5ce" id="sendComponent" powered="false">
              <parameter index="0" name="Power On/Off" parameterValue="0"/>
              <parameter index="1" name="Level" parameterValue="0"/>
            </component>
            <component id="sendPan" powered="true"/>
          </sendSlot>
          <sendSlot preFader="false" sendOutputID="0" slotIndex="8">
            <component componentGuid="68975f25-c4ce-4313-a366-9ca0122549d6" id="sendComponent" powered="false">
              <parameter index="0" name="Power On/Off" parameterValue="0"/>
              <parameter index="1" name="Level" parameterValue="0"/>
            </component>
            <component id="sendPan" powered="true"/>
          </sendSlot>
          <sendSlot preFader="false" sendOutputID="0" slotIndex="9">
            <component componentGuid="8b6b3bfb-7e3a-4b4f-bb72-8e3474039332" id="sendComponent" powered="false">
              <parameter index="0" name="Power On/Off" parameterValue="0"/>
              <parameter index="1" name="Level" parameterValue="0"/>
            </component>
            <component id="sendPan" powered="true"/>
          </sendSlot>
          <sendSlot preFader="false" sendOutputID="0" slotIndex="10">
            <component componentGuid="5ea80363-3528-4049-a1ab-2ee9b6c50e30" id="sendComponent" powered="false">
              <parameter index="0" name="Power On/Off" parameterValue="0"/>
              <parameter index="1" name="Level" parameterValue="0"/>
            </component>
            <component id="sendPan" powered="true"/>
          </sendSlot>
          <sendSlot preFader="false" sendOutputID="0" slotIndex="11">
            <component componentGuid="90b0fd31-3c31-44e5-aeac-b752c098968d" id="sendComponent" powered="false">
              <parameter index="0" name="Power On/Off" parameterValue="0"/>
              <parameter index="1" name="Level" parameterValue="0"/>
            </component>
            <component id="sendPan" powered="true"/>
          </sendSlot>
          <sendSlot preFader="false" sendOutputID="0" slotIndex="12">
            <component componentGuid="d22e127a-58fc-4c06-8e56-108dcefb587e" id="sendComponent" powered="false">
              <parameter index="0" name="Power On/Off" parameterValue="0"/>
              <parameter index="1" name="Level" parameterValue="0"/>
            </component>
            <component id="sendPan" powered="true"/>
          </sendSlot>
          <sendSlot preFader="false" sendOutputID="0" slotIndex="13">
            <component componentGuid="b97a1c15-f9f8-4862-a745-353f00fbc2c1" id="sendComponent" powered="false">
              <parameter index="0" name="Power On/Off" parameterValue="0"/>
              <parameter index="1" name="Level" parameterValue="0"/>
            </component>
            <component id="sendPan" powered="true"/>
          </sendSlot>
          <sendSlot preFader="false" sendOutputID="0" slotIndex="14">
            <component componentGuid="3441c8d9-332a-4460-bc0f-619233d7e9f5" id="sendComponent" powered="false">
              <parameter index="0" name="Power On/Off" parameterValue="0"/>
              <parameter index="1" name="Level" parameterValue="0"/>
            </component>
            <component id="sendPan" powered="true"/>
          </sendSlot>
          <sendSlot preFader="false" sendOutputID="0" slotIndex="15">
            <component componentGuid="a487de91-d30b-4504-9183-e1f3d09a6d49" id="sendComponent" powered="false">
              <parameter index="0" name="Power On/Off" parameterValue="0"/>
              <parameter index="1" name="Level" parameterValue="0"/>
            </component>
            <component id="sendPan" powered="true"/>
          </sendSlot>
        </sendList>
        <audioClip clipAutoCrossfade="true" crossFadeHeadClipID="-1" crossFadeTailClipID="-1" endPoint="542980" fileID="4" hue="-1" id="0" lockedInTime="false" looped="false" name="Dialog_012" offline="false" select="false" sourceInPoint="25339" sourceOutPoint="568319" startPoint="0" zOrder="173">
          <component componentGuid="149e3e8f-ddc0-4cc0-a3e4-05e0ce2704dc" componentID="Audition.Fader" id="clipGain" name="volume" powered="true">
            <parameter index="0" name="volume" parameterValue="1"/>
            <parameter index="1" name="static gain" parameterValue="1"/>
          </component>
          <component componentGuid="d79d2d11-09ac-439a-af8a-69c37574594a" componentID="Audition.Mute" id="clipMute" name="Mute" powered="true">
            <parameter index="0" parameterValue="0"/>
            <parameter index="1" name="mute" parameterValue="0"/>
          </component>
          <component componentGuid="33dfa884-4027-4166-b039-52e5ab450dff" componentID="Audition.StereoPanner" id="clipPan" name="StereoPanner" powered="true">
            <parameter index="0" name="Pan" parameterValue="0"/>
          </component>
          <fadeIn crossFadeLinkType="linkedAsymmetric" endPoint="0" shape="19" startPoint="0" type="log"/>
          <fadeOut crossFadeLinkType="linkedAsymmetric" endPoint="542980" shape="0" startPoint="542980" type="cosine"/>
          <editParameter parameterIndex="0" slotIndex="4294967281"/>
          <editParameter parameterIndex="0" slotIndex="4294967280"/>
          <channelMap>
            <channel index="0" sourceIndex="0"/>
          </channelMap>
        </audioClip>
        <audioClip clipAutoCrossfade="true" crossFadeHeadClipID="-1" crossFadeTailClipID="-1" endPoint="621661" fileID="4" hue="-1" id="1" lockedInTime="false" looped="false" name="Dialog_012" offline="false" select="false" sourceInPoint="568319" sourceOutPoint="644336" startPoint="545644" zOrder="161">
          <component componentGuid="fd4e395a-66f4-403a-a70e-5853d7996c62" componentID="Audition.Fader" id="clipGain" name="volume" powered="true">
            <parameter index="0" name="volume" parameterValue="1"/>
            <parameter index="1" name="static gain" parameterValue="1"/>
          </component>
          <component componentGuid="7987a215-b999-4e54-a0fa-17d9886e68e7" componentID="Audition.Mute" id="clipMute" name="Mute" powered="true">
            <parameter index="0" parameterValue="0"/>
            <parameter index="1" name="mute" parameterValue="0"/>
          </component>
          <component componentGuid="c115ed42-18c6-4980-b0ae-e89c9cc53116" componentID="Audition.StereoPanner" id="clipPan" name="StereoPanner" powered="true">
            <parameter index="0" name="Pan" parameterValue="0"/>
          </component>
          <fadeIn crossFadeLinkType="linkedAsymmetric" endPoint="0" shape="0" startPoint="0" type="cosine"/>
          <fadeOut crossFadeLinkType="linkedAsymmetric" endPoint="76017" shape="0" startPoint="76017" type="cosine"/>
          <editParameter parameterIndex="0" slotIndex="4294967281"/>
          <editParameter parameterIndex="0" slotIndex="4294967280"/>
          <channelMap>
            <channel index="0" sourceIndex="0"/>
          </channelMap>
        </audioClip>
        <audioClip clipAutoCrossfade="true" crossFadeHeadClipID="-1" crossFadeTailClipID="-1" endPoint="907595" fileID="4" hue="-1" id="2" lockedInTime="false" looped="false" name="Dialog_012" offline="false" select="false" sourceInPoint="644336" sourceOutPoint="930270" startPoint="621661" zOrder="164">
          <component componentGuid="05807942-64f8-4bb1-95ec-8e280baeade3" componentID="Audition.Fader" id="clipGain" name="volume" powered="true">
            <parameter index="0" name="volume" parameterValue="1"/>
            <parameter index="1" name="static gain" parameterValue="1"/>
          </component>
          <component componentGuid="fe45471a-69a5-48f3-b226-f4be00fb8ee7" componentID="Audition.Mute" id="clipMute" name="Mute" powered="true">
            <parameter index="0" parameterValue="0"/>
            <parameter index="1" name="mute" parameterValue="0"/>
          </component>
          <component componentGuid="c994ef49-627b-40ac-adb6-eb5e2d1473fc" componentID="Audition.StereoPanner" id="clipPan" name="StereoPanner" powered="true">
            <parameter index="0" name="Pan" parameterValue="0"/>
          </component>
          <fadeIn crossFadeLinkType="linkedAsymmetric" endPoint="0" shape="0" startPoint="0" type="cosine"/>
          <fadeOut crossFadeLinkType="linkedAsymmetric" endPoint="285934" shape="0" startPoint="285934" type="cosine"/>
          <editParameter parameterIndex="0" slotIndex="4294967281"/>
          <editParameter parameterIndex="0" slotIndex="4294967280"/>
          <channelMap>
            <channel index="0" sourceIndex="0"/>
          </channelMap>
        </audioClip>
        <audioClip clipAutoCrossfade="true" crossFadeHeadClipID="-1" crossFadeTailClipID="-1" endPoint="1860478" fileID="5" hue="-1" id="3" lockedInTime="false" looped="false" name="Dialog_013" offline="false" select="false" sourceInPoint="0" sourceOutPoint="889171" startPoint="971307" zOrder="170">
          <component componentGuid="a6a1ed5c-6d4a-4629-9c8a-8a6a0e8b5e76" componentID="Audition.Fader" id="clipGain" name="volume" powered="true">
            <parameter index="0" name="volume" parameterValue="1"/>
            <parameter index="1" name="static gain" parameterValue="1"/>
          </component>
          <component componentGuid="de1c36ce-032f-4ccc-8bd4-2fad51bfce24" componentID="Audition.Mute" id="clipMute" name="Mute" powered="true">
            <parameter index="0" parameterValue="0"/>
            <parameter index="1" name="mute" parameterValue="0"/>
          </component>
          <component componentGuid="9ff0a5e2-0a54-42da-8a9e-35deead6a995" componentID="Audition.StereoPanner" id="clipPan" name="StereoPanner" powered="true">
            <parameter index="0" name="Pan" parameterValue="0"/>
          </component>
          <fadeIn crossFadeLinkType="linkedAsymmetric" endPoint="0" shape="0" startPoint="0" type="cosine"/>
          <fadeOut crossFadeLinkType="linkedAsymmetric" endPoint="889171" shape="0" startPoint="889171" type="cosine"/>
          <take sourceInPoint="0"/>
          <editParameter parameterIndex="0" slotIndex="4294967281"/>
          <editParameter parameterIndex="0" slotIndex="4294967280"/>
          <channelMap>
            <channel index="0" sourceIndex="0"/>
          </channelMap>
        </audioClip>
      </audioTrack>
      <audioTrack automationLaneOpenState="false" id="10004" index="3" select="false" visible="true">
        <trackParameters trackHeight="108" trackHue="135.7519197463989258" trackMinimized="false">
          <name>Dialog 03 04</name>
        </trackParameters>
        <trackAudioParameters audioChannelType="stereo" automationMode="1" monitoring="false" recordArmed="false" solo="false" soloSafe="false">
          <trackOutput outputID="10000" type="trackID"/>
          <trackInput inputID="2"/>
          <component componentGuid="0d7d3b4c-10c7-46fa-8a4c-4b587705ac09" componentID="Audition.Fader" id="trackFader" name="volume" powered="true">
            <parameter index="0" name="volume" parameterValue="1"/>
            <parameter index="1" name="static gain" parameterValue="1"/>
          </component>
          <component componentGuid="d84ba408-cbcc-463c-8a08-3a0c51417d2f" componentID="Audition.Mute" id="trackMute" name="Mute" powered="true">
            <parameter index="0" parameterValue="0"/>
            <parameter index="1" name="mute" parameterValue="1"/>
          </component>
          <component componentGuid="62183d1e-9fb0-483c-97b2-efaf8d8506cb" componentID="Audition.StereoPanner" id="trackPan" name="StereoPanner" powered="true">
            <parameter index="0" name="Pan" parameterValue="0"/>
          </component>
          <component componentGuid="425e4da3-1e55-467f-86ed-73573e2d38a6" componentID="Audition.EQ" id="trackEQ" name="EQ" powered="false">
            <parameter index="0" name="Low Shelf Frequency" parameterValue="0.000834"/>
            <parameter index="1" name="Low Shelf Gain" parameterValue="0.5"/>
            <parameter index="2" name="High Shelf Frequency" parameterValue="0.7497915"/>
            <parameter index="3" name="High Shelf Gain" parameterValue="0.5"/>
            <parameter index="4" name="EQ Band 1 Center Frequency" parameterValue="0.001251"/>
            <parameter index="5" name="EQ Band 1 Q" parameterValue="0.0002"/>
            <parameter index="6" name="EQ Band 1 Gain" parameterValue="0.5"/>
            <parameter index="7" name="EQ Band 1 Enable" parameterValue="1"/>
            <parameter index="8" name="EQ Band 2 Center Frequency" parameterValue="0.0075063"/>
            <parameter index="9" name="EQ Band 2 Q" parameterValue="0.0002"/>
            <parameter index="10" name="EQ Band 2 Gain" parameterValue="0.5"/>
            <parameter index="11" name="EQ Band 2 Enable" parameterValue="1"/>
            <parameter index="12" name="EQ Band 3 Center Frequency" parameterValue="0.0325271"/>
            <parameter index="13" name="EQ Band 3 Q" parameterValue="0.0002"/>
            <parameter index="14" name="EQ Band 3 Gain" parameterValue="0.5"/>
            <parameter index="15" name="EQ Band 3 Enable" parameterValue="1"/>
            <parameter index="16" name="EQ Band 4 Center Frequency" parameterValue="0.1326105"/>
            <parameter index="17" name="EQ Band 4 Q" parameterValue="0.0002"/>
            <parameter index="18" name="EQ Band 4 Gain" parameterValue="0.5"/>
            <parameter index="19" name="EQ Band 4 Enable" parameterValue="1"/>
            <parameter index="20" name="EQ Band 5 Center Frequency" parameterValue="0.5329441"/>
            <parameter index="21" name="EQ Band 5 Q" parameterValue="0.0002"/>
            <parameter index="22" name="EQ Band 5 Gain" parameterValue="0.5"/>
            <parameter index="23" name="EQ Band 5 Enable" parameterValue="1"/>
            <parameter index="24" name="Master Gain" parameterValue="0.6666667"/>
            <parameter index="25" name="ConstantQ" parameterValue="1"/>
            <parameter index="26" name="Low Shelf Filter Order" parameterValue="0"/>
            <parameter index="27" name="High Shelf Filter Order" parameterValue="0"/>
            <parameter index="28" name="Ultra-Quiet Mode" parameterValue="0"/>
            <parameter index="29" name="Low Shelf Enable" parameterValue="1"/>
            <parameter index="30" name="High Shelf Enable" parameterValue="1"/>
            <parameter index="31" name="Original Sample Rate" parameterValue="0.25"/>
            <parameter index="32" name="EQ Band 1 Bandwidth" parameterValue="0.0025"/>
            <parameter index="33" name="EQ Band 2 Bandwidth" parameterValue="0.01"/>
            <parameter index="34" name="EQ Band 3 Bandwidth" parameterValue="0.04"/>
            <parameter index="35" name="EQ Band 4 Bandwidth" parameterValue="0.16"/>
            <parameter index="36" name="EQ Band 5 Bandwidth" parameterValue="0.64"/>
            <parameter index="37" name="High-Pass Filter Enable" parameterValue="0"/>
            <parameter index="38" name="High-Pass Cutoff Frequency" parameterValue="0"/>
            <parameter index="39" name="High-Pass Slope" parameterValue="0.4"/>
            <parameter index="40" name="Low-Pass Filter Enable" parameterValue="0"/>
            <parameter index="41" name="Low-Pass Cutoff Frequency" parameterValue="0.8331943"/>
            <parameter index="42" name="Low-Pass Slope" parameterValue="0.4"/>
            <parameter index="43" name="Bypass" parameterValue="0"/>
            <parameter index="44" name="LowGraphRange" parameterValue="1"/>
          </component>
        </trackAudioParameters>
        <editParameter parameterIndex="0" slotIndex="4294967280"/>
        <sendList>
          <sendSlot preFader="false" sendOutputID="0" slotIndex="0">
            <component componentGuid="6898ad88-d456-42ff-91a8-a1e6f1cf220d" id="sendComponent" powered="false">
              <parameter index="0" name="Power On/Off" parameterValue="0"/>
              <parameter index="1" name="Level" parameterValue="0"/>
            </component>
            <component id="sendPan" powered="true"/>
          </sendSlot>
          <sendSlot preFader="false" sendOutputID="0" slotIndex="1">
            <component componentGuid="0392a96c-f8e2-44bb-93c0-4ffb93eb0a28" id="sendComponent" powered="false">
              <parameter index="0" name="Power On/Off" parameterValue="0"/>
              <parameter index="1" name="Level" parameterValue="0"/>
            </component>
            <component id="sendPan" powered="true"/>
          </sendSlot>
          <sendSlot preFader="false" sendOutputID="0" slotIndex="2">
            <component componentGuid="f7f95604-e1d6-4b91-9608-0fd28072f028" id="sendComponent" powered="false">
              <parameter index="0" name="Power On/Off" parameterValue="0"/>
              <parameter index="1" name="Level" parameterValue="0"/>
            </component>
            <component id="sendPan" powered="true"/>
          </sendSlot>
          <sendSlot preFader="false" sendOutputID="0" slotIndex="3">
            <component componentGuid="6859a6d7-5d83-4671-b1e2-844df9cebe11" id="sendComponent" powered="false">
              <parameter index="0" name="Power On/Off" parameterValue="0"/>
              <parameter index="1" name="Level" parameterValue="0"/>
            </component>
            <component id="sendPan" powered="true"/>
          </sendSlot>
          <sendSlot preFader="false" sendOutputID="0" slotIndex="4">
            <component componentGuid="289aaf86-1cec-4fa0-96de-164d27f3c08a" id="sendComponent" powered="false">
              <parameter index="0" name="Power On/Off" parameterValue="0"/>
              <parameter index="1" name="Level" parameterValue="0"/>
            </component>
            <component id="sendPan" powered="true"/>
          </sendSlot>
          <sendSlot preFader="false" sendOutputID="0" slotIndex="5">
            <component componentGuid="281a7586-c9c8-490f-9d0d-2391f8512f58" id="sendComponent" powered="false">
              <parameter index="0" name="Power On/Off" parameterValue="0"/>
              <parameter index="1" name="Level" parameterValue="0"/>
            </component>
            <component id="sendPan" powered="true"/>
          </sendSlot>
          <sendSlot preFader="false" sendOutputID="0" slotIndex="6">
            <component componentGuid="9844fca2-9c04-4135-a9e0-228c57654a5d" id="sendComponent" powered="false">
              <parameter index="0" name="Power On/Off" parameterValue="0"/>
              <parameter index="1" name="Level" parameterValue="0"/>
            </component>
            <component id="sendPan" powered="true"/>
          </sendSlot>
          <sendSlot preFader="false" sendOutputID="0" slotIndex="7">
            <component componentGuid="aa97402e-713c-4994-984d-83befa4751d7" id="sendComponent" powered="false">
              <parameter index="0" name="Power On/Off" parameterValue="0"/>
              <parameter index="1" name="Level" parameterValue="0"/>
            </component>
            <component id="sendPan" powered="true"/>
          </sendSlot>
          <sendSlot preFader="false" sendOutputID="0" slotIndex="8">
            <component componentGuid="72bb2288-7d1a-4965-85ec-f7a8d29cbe3d" id="sendComponent" powered="false">
              <parameter index="0" name="Power On/Off" parameterValue="0"/>
              <parameter index="1" name="Level" parameterValue="0"/>
            </component>
            <component id="sendPan" powered="true"/>
          </sendSlot>
          <sendSlot preFader="false" sendOutputID="0" slotIndex="9">
            <component componentGuid="a1715be6-6e28-4ac1-be1c-8c6cbe616d4f" id="sendComponent" powered="false">
              <parameter index="0" name="Power On/Off" parameterValue="0"/>
              <parameter index="1" name="Level" parameterValue="0"/>
            </component>
            <component id="sendPan" powered="true"/>
          </sendSlot>
          <sendSlot preFader="false" sendOutputID="0" slotIndex="10">
            <component componentGuid="7f86a6e5-31b1-4231-b1eb-a572b8dea936" id="sendComponent" powered="false">
              <parameter index="0" name="Power On/Off" parameterValue="0"/>
              <parameter index="1" name="Level" parameterValue="0"/>
            </component>
            <component id="sendPan" powered="true"/>
          </sendSlot>
          <sendSlot preFader="false" sendOutputID="0" slotIndex="11">
            <component componentGuid="1f4e9834-ec4e-4fea-af70-c2e9beced5f9" id="sendComponent" powered="false">
              <parameter index="0" name="Power On/Off" parameterValue="0"/>
              <parameter index="1" name="Level" parameterValue="0"/>
            </component>
            <component id="sendPan" powered="true"/>
          </sendSlot>
          <sendSlot preFader="false" sendOutputID="0" slotIndex="12">
            <component componentGuid="ba2b9554-5bbc-4faf-9216-b81ac519ee73" id="sendComponent" powered="false">
              <parameter index="0" name="Power On/Off" parameterValue="0"/>
              <parameter index="1" name="Level" parameterValue="0"/>
            </component>
            <component id="sendPan" powered="true"/>
          </sendSlot>
          <sendSlot preFader="false" sendOutputID="0" slotIndex="13">
            <component componentGuid="f21ff755-f498-4164-b89a-f9f0347d7bb1" id="sendComponent" powered="false">
              <parameter index="0" name="Power On/Off" parameterValue="0"/>
              <parameter index="1" name="Level" parameterValue="0"/>
            </component>
            <component id="sendPan" powered="true"/>
          </sendSlot>
          <sendSlot preFader="false" sendOutputID="0" slotIndex="14">
            <component componentGuid="5ce95c19-3594-46cf-9501-cd361127f215" id="sendComponent" powered="false">
              <parameter index="0" name="Power On/Off" parameterValue="0"/>
              <parameter index="1" name="Level" parameterValue="0"/>
            </component>
            <component id="sendPan" powered="true"/>
          </sendSlot>
          <sendSlot preFader="false" sendOutputID="0" slotIndex="15">
            <component componentGuid="60790810-8b12-4e67-8573-3f10cbe53e5c" id="sendComponent" powered="false">
              <parameter index="0" name="Power On/Off" parameterValue="0"/>
              <parameter index="1" name="Level" parameterValue="0"/>
            </component>
            <component id="sendPan" powered="true"/>
          </sendSlot>
        </sendList>
        <audioClip clipAutoCrossfade="true" crossFadeHeadClipID="-1" crossFadeTailClipID="-1" endPoint="542980" fileID="6" hue="-1" id="0" lockedInTime="false" looped="false" name="Track 4_016" offline="false" select="false" sourceInPoint="25339" sourceOutPoint="568319" startPoint="0" zOrder="249">
          <component componentGuid="41257d00-c335-4453-ae04-b62e2f20fe87" componentID="Audition.Fader" id="clipGain" name="volume" powered="true">
            <parameter index="0" name="volume" parameterValue="1"/>
            <parameter index="1" name="static gain" parameterValue="1"/>
          </component>
          <component componentGuid="0f548420-fcf1-472b-87db-b5cfcb75a930" componentID="Audition.Mute" id="clipMute" name="Mute" powered="true">
            <parameter index="0" parameterValue="0"/>
            <parameter index="1" name="mute" parameterValue="0"/>
          </component>
          <component componentGuid="6ce7fe7c-0627-439c-87d6-edc8bd526f2a" componentID="Audition.StereoPanner" id="clipPan" name="StereoPanner" powered="true">
            <parameter index="0" name="Pan" parameterValue="0"/>
          </component>
          <fadeIn crossFadeLinkType="linkedAsymmetric" endPoint="0" shape="0" startPoint="0" type="cosine"/>
          <fadeOut crossFadeLinkType="linkedAsymmetric" endPoint="542980" shape="0" startPoint="542980" type="cosine"/>
          <editParameter parameterIndex="0" slotIndex="4294967281"/>
          <editParameter parameterIndex="0" slotIndex="4294967280"/>
          <channelMap>
            <channel index="0" sourceIndex="0"/>
          </channelMap>
        </audioClip>
        <audioClip clipAutoCrossfade="true" crossFadeHeadClipID="-1" crossFadeTailClipID="-1" endPoint="618997" fileID="6" hue="-1" id="1" lockedInTime="false" looped="false" name="Track 4_016" offline="false" select="false" sourceInPoint="568319" sourceOutPoint="644336" startPoint="542980" zOrder="175">
          <component componentGuid="009caa69-0feb-4b92-bf9e-a9c50c021830" componentID="Audition.Fader" id="clipGain" name="volume" powered="true">
            <parameter index="0" name="volume" parameterValue="1"/>
            <parameter index="1" name="static gain" parameterValue="1"/>
          </component>
          <component componentGuid="88e98a20-09f3-4b4a-8e04-7e00081ba417" componentID="Audition.Mute" id="clipMute" name="Mute" powered="true">
            <parameter index="0" parameterValue="0"/>
            <parameter index="1" name="mute" parameterValue="0"/>
          </component>
          <component componentGuid="80c3789f-498a-4c44-b65a-54a0daa29516" componentID="Audition.StereoPanner" id="clipPan" name="StereoPanner" powered="true">
            <parameter index="0" name="Pan" parameterValue="0"/>
          </component>
          <fadeIn crossFadeLinkType="linkedAsymmetric" endPoint="0" shape="0" startPoint="0" type="cosine"/>
          <fadeOut crossFadeLinkType="linkedAsymmetric" endPoint="76017" shape="0" startPoint="76017" type="cosine"/>
          <editParameter parameterIndex="0" slotIndex="4294967281"/>
          <editParameter parameterIndex="0" slotIndex="4294967280"/>
          <channelMap>
            <channel index="0" sourceIndex="0"/>
          </channelMap>
        </audioClip>
        <audioClip clipAutoCrossfade="true" crossFadeHeadClipID="-1" crossFadeTailClipID="-1" endPoint="1186407" fileID="6" hue="-1" id="2" lockedInTime="false" looped="false" name="Track 4_016" offline="false" select="false" sourceInPoint="644336" sourceOutPoint="1211746" startPoint="618997" zOrder="250">
          <component componentGuid="806c7141-f366-4ead-9bb0-c6662348efa8" componentID="Audition.Fader" id="clipGain" name="volume" powered="true">
            <parameter index="0" name="volume" parameterValue="1"/>
            <parameter index="1" name="static gain" parameterValue="1"/>
          </component>
          <component componentGuid="b68bae5c-db68-4f14-bce1-b1eeca53919a" componentID="Audition.Mute" id="clipMute" name="Mute" powered="true">
            <parameter index="0" parameterValue="0"/>
            <parameter index="1" name="mute" parameterValue="0"/>
          </component>
          <component componentGuid="c1951a1c-c2f8-48d7-92a6-8193531c0fc8" componentID="Audition.StereoPanner" id="clipPan" name="StereoPanner" powered="true">
            <parameter index="0" name="Pan" parameterValue="0"/>
          </component>
          <fadeIn crossFadeLinkType="linkedAsymmetric" endPoint="0" shape="0" startPoint="0" type="cosine"/>
          <fadeOut crossFadeLinkType="linkedAsymmetric" endPoint="567410" shape="0" startPoint="567410" type="cosine"/>
          <editParameter parameterIndex="0" slotIndex="4294967281"/>
          <editParameter parameterIndex="0" slotIndex="4294967280"/>
          <channelMap>
            <channel index="0" sourceIndex="0"/>
          </channelMap>
        </audioClip>
        <audioClip clipAutoCrossfade="true" crossFadeHeadClipID="-1" crossFadeTailClipID="-1" endPoint="1869119" fileID="7" hue="-1" id="3" lockedInTime="false" looped="false" name="Track 4_017" offline="false" select="false" sourceInPoint="0" sourceOutPoint="643778" startPoint="1225341" zOrder="246">
          <component componentGuid="6d2696e8-770f-427c-80aa-d2a6498fb4c6" componentID="Audition.Fader" id="clipGain" name="volume" powered="true">
            <parameter index="0" name="volume" parameterValue="1"/>
            <parameter index="1" name="static gain" parameterValue="1"/>
          </component>
          <component componentGuid="0f3f38e3-14b4-4e92-a9c0-7e0cd2607d60" componentID="Audition.Mute" id="clipMute" name="Mute" powered="true">
            <parameter index="0" parameterValue="0"/>
            <parameter index="1" name="mute" parameterValue="0"/>
          </component>
          <component componentGuid="54d3b32e-908a-4af2-9df9-2fdd0f3e83d9" componentID="Audition.StereoPanner" id="clipPan" name="StereoPanner" powered="true">
            <parameter index="0" name="Pan" parameterValue="0"/>
          </component>
          <fadeIn crossFadeLinkType="linkedAsymmetric" endPoint="0" shape="0" startPoint="0" type="cosine"/>
          <fadeOut crossFadeLinkType="linkedAsymmetric" endPoint="643778" shape="0" startPoint="643778" type="cosine"/>
          <take sourceInPoint="0"/>
          <editParameter parameterIndex="0" slotIndex="4294967281"/>
          <editParameter parameterIndex="0" slotIndex="4294967280"/>
          <channelMap>
            <channel index="0" sourceIndex="0"/>
          </channelMap>
        </audioClip>
        <audioClip clipAutoCrossfade="true" crossFadeHeadClipID="-1" crossFadeTailClipID="-1" endPoint="1943326" fileID="7" hue="-1" id="4" lockedInTime="false" looped="false" name="Track 4_017" offline="false" select="false" sourceInPoint="643778" sourceOutPoint="717985" startPoint="1869119" zOrder="176">
          <component componentGuid="31d11f3b-c730-473b-9d18-bf3c6984fe79" componentID="Audition.Fader" id="clipGain" name="volume" powered="true">
            <parameter index="0" name="volume" parameterValue="1"/>
            <parameter index="1" name="static gain" parameterValue="1"/>
          </component>
          <component componentGuid="4c8939e9-a1b8-4550-ae62-5d98fcf36137" componentID="Audition.Mute" id="clipMute" name="Mute" powered="true">
            <parameter index="0" parameterValue="0"/>
            <parameter index="1" name="mute" parameterValue="0"/>
          </component>
          <component componentGuid="8745e3dd-f579-458f-bf84-9e136efad41f" componentID="Audition.StereoPanner" id="clipPan" name="StereoPanner" powered="true">
            <parameter index="0" name="Pan" parameterValue="0"/>
          </component>
          <fadeIn crossFadeLinkType="linkedAsymmetric" endPoint="0" shape="0" startPoint="0" type="cosine"/>
          <fadeOut crossFadeLinkType="linkedAsymmetric" endPoint="74207" shape="0" startPoint="74207" type="cosine"/>
          <editParameter parameterIndex="0" slotIndex="4294967281"/>
          <editParameter parameterIndex="0" slotIndex="4294967280"/>
          <channelMap>
            <channel index="0" sourceIndex="0"/>
          </channelMap>
        </audioClip>
        <audioClip clipAutoCrossfade="true" crossFadeHeadClipID="-1" crossFadeTailClipID="-1" endPoint="2072786" fileID="7" hue="-1" id="5" lockedInTime="false" looped="false" name="Track 4_017" offline="false" select="false" sourceInPoint="717985" sourceOutPoint="847445" startPoint="1943326" zOrder="174">
          <component componentGuid="31c20c5a-4c34-40ec-ae8a-96604e13448d" componentID="Audition.Fader" id="clipGain" name="volume" powered="true">
            <parameter index="0" name="volume" parameterValue="1"/>
            <parameter index="1" name="static gain" parameterValue="1"/>
          </component>
          <component componentGuid="28eea965-864b-4784-affb-20b365c05dd8" componentID="Audition.Mute" id="clipMute" name="Mute" powered="true">
            <parameter index="0" parameterValue="0"/>
            <parameter index="1" name="mute" parameterValue="0"/>
          </component>
          <component componentGuid="1c67ef54-e254-4d8c-aac9-4c3cb2b4ba64" componentID="Audition.StereoPanner" id="clipPan" name="StereoPanner" powered="true">
            <parameter index="0" name="Pan" parameterValue="0"/>
          </component>
          <fadeIn crossFadeLinkType="linkedAsymmetric" endPoint="0" shape="0" startPoint="0" type="cosine"/>
          <fadeOut crossFadeLinkType="linkedAsymmetric" endPoint="129460" shape="0" startPoint="129460" type="cosine"/>
          <editParameter parameterIndex="0" slotIndex="4294967281"/>
          <editParameter parameterIndex="0" slotIndex="4294967280"/>
          <channelMap>
            <channel index="0" sourceIndex="0"/>
          </channelMap>
        </audioClip>
      </audioTrack>
      <audioTrack automationLaneOpenState="false" id="10005" index="4" select="true" visible="true">
        <trackParameters trackHeight="108" trackHue="223.4782218933105469" trackMinimized="false">
          <name>Dialog 05 06</name>
        </trackParameters>
        <trackAudioParameters audioChannelType="stereo" automationMode="1" monitoring="false" recordArmed="false" solo="false" soloSafe="false">
          <trackOutput outputID="10000" type="trackID"/>
          <trackInput inputID="2"/>
          <component componentGuid="8d58b8c6-4996-4cd0-9404-b039ea71ff07" componentID="Audition.Fader" id="trackFader" name="volume" powered="true">
            <parameter index="0" name="volume" parameterValue="1"/>
            <parameter index="1" name="static gain" parameterValue="1"/>
          </component>
          <component componentGuid="08ab636d-36a3-4e7f-9042-c9cadb88108d" componentID="Audition.Mute" id="trackMute" name="Mute" powered="true">
            <parameter index="0" parameterValue="0"/>
            <parameter index="1" name="mute" parameterValue="0"/>
          </component>
          <component componentGuid="1693718c-1965-4559-adc2-35a259f7d076" componentID="Audition.StereoPanner" id="trackPan" name="StereoPanner" powered="true">
            <parameter index="0" name="Pan" parameterValue="0"/>
          </component>
          <component componentGuid="d86289a1-4c67-4896-a91d-0ae81a302a1c" componentID="Audition.EQ" id="trackEQ" name="EQ" powered="false">
            <parameter index="0" name="Low Shelf Frequency" parameterValue="0.000834"/>
            <parameter index="1" name="Low Shelf Gain" parameterValue="0.5"/>
            <parameter index="2" name="High Shelf Frequency" parameterValue="0.7497915"/>
            <parameter index="3" name="High Shelf Gain" parameterValue="0.5"/>
            <parameter index="4" name="EQ Band 1 Center Frequency" parameterValue="0.001251"/>
            <parameter index="5" name="EQ Band 1 Q" parameterValue="0.0002"/>
            <parameter index="6" name="EQ Band 1 Gain" parameterValue="0.5"/>
            <parameter index="7" name="EQ Band 1 Enable" parameterValue="1"/>
            <parameter index="8" name="EQ Band 2 Center Frequency" parameterValue="0.0075063"/>
            <parameter index="9" name="EQ Band 2 Q" parameterValue="0.0002"/>
            <parameter index="10" name="EQ Band 2 Gain" parameterValue="0.5"/>
            <parameter index="11" name="EQ Band 2 Enable" parameterValue="1"/>
            <parameter index="12" name="EQ Band 3 Center Frequency" parameterValue="0.0325271"/>
            <parameter index="13" name="EQ Band 3 Q" parameterValue="0.0002"/>
            <parameter index="14" name="EQ Band 3 Gain" parameterValue="0.5"/>
            <parameter index="15" name="EQ Band 3 Enable" parameterValue="1"/>
            <parameter index="16" name="EQ Band 4 Center Frequency" parameterValue="0.1326105"/>
            <parameter index="17" name="EQ Band 4 Q" parameterValue="0.0002"/>
            <parameter index="18" name="EQ Band 4 Gain" parameterValue="0.5"/>
            <parameter index="19" name="EQ Band 4 Enable" parameterValue="1"/>
            <parameter index="20" name="EQ Band 5 Center Frequency" parameterValue="0.5329441"/>
            <parameter index="21" name="EQ Band 5 Q" parameterValue="0.0002"/>
            <parameter index="22" name="EQ Band 5 Gain" parameterValue="0.5"/>
            <parameter index="23" name="EQ Band 5 Enable" parameterValue="1"/>
            <parameter index="24" name="Master Gain" parameterValue="0.6666667"/>
            <parameter index="25" name="ConstantQ" parameterValue="1"/>
            <parameter index="26" name="Low Shelf Filter Order" parameterValue="0"/>
            <parameter index="27" name="High Shelf Filter Order" parameterValue="0"/>
            <parameter index="28" name="Ultra-Quiet Mode" parameterValue="0"/>
            <parameter index="29" name="Low Shelf Enable" parameterValue="1"/>
            <parameter index="30" name="High Shelf Enable" parameterValue="1"/>
            <parameter index="31" name="Original Sample Rate" parameterValue="0.25"/>
            <parameter index="32" name="EQ Band 1 Bandwidth" parameterValue="0.0025"/>
            <parameter index="33" name="EQ Band 2 Bandwidth" parameterValue="0.01"/>
            <parameter index="34" name="EQ Band 3 Bandwidth" parameterValue="0.04"/>
            <parameter index="35" name="EQ Band 4 Bandwidth" parameterValue="0.16"/>
            <parameter index="36" name="EQ Band 5 Bandwidth" parameterValue="0.64"/>
            <parameter index="37" name="High-Pass Filter Enable" parameterValue="0"/>
            <parameter index="38" name="High-Pass Cutoff Frequency" parameterValue="0"/>
            <parameter index="39" name="High-Pass Slope" parameterValue="0.4"/>
            <parameter index="40" name="Low-Pass Filter Enable" parameterValue="0"/>
            <parameter index="41" name="Low-Pass Cutoff Frequency" parameterValue="0.8331943"/>
            <parameter index="42" name="Low-Pass Slope" parameterValue="0.4"/>
            <parameter index="43" name="Bypass" parameterValue="0"/>
            <parameter index="44" name="LowGraphRange" parameterValue="1"/>
          </component>
        </trackAudioParameters>
        <editParameter parameterIndex="0" slotIndex="4294967280"/>
        <sendList>
          <sendSlot preFader="false" sendOutputID="0" slotIndex="0">
            <component componentGuid="60774106-13f7-4fdc-8092-77a0c0d74cec" id="sendComponent" powered="false">
              <parameter index="0" name="Power On/Off" parameterValue="0"/>
              <parameter index="1" name="Level" parameterValue="0"/>
            </component>
            <component id="sendPan" powered="true"/>
          </sendSlot>
          <sendSlot preFader="false" sendOutputID="0" slotIndex="1">
            <component componentGuid="9a231644-e119-4c60-afd2-afd8ab742439" id="sendComponent" powered="false">
              <parameter index="0" name="Power On/Off" parameterValue="0"/>
              <parameter index="1" name="Level" parameterValue="0"/>
            </component>
            <component id="sendPan" powered="true"/>
          </sendSlot>
          <sendSlot preFader="false" sendOutputID="0" slotIndex="2">
            <component componentGuid="9c8e1da6-ed32-435c-8601-d4628cc5ab10" id="sendComponent" powered="false">
              <parameter index="0" name="Power On/Off" parameterValue="0"/>
              <parameter index="1" name="Level" parameterValue="0"/>
            </component>
            <component id="sendPan" powered="true"/>
          </sendSlot>
          <sendSlot preFader="false" sendOutputID="0" slotIndex="3">
            <component componentGuid="969677ae-35bd-483c-96a9-53d05635de80" id="sendComponent" powered="false">
              <parameter index="0" name="Power On/Off" parameterValue="0"/>
              <parameter index="1" name="Level" parameterValue="0"/>
            </component>
            <component id="sendPan" powered="true"/>
          </sendSlot>
          <sendSlot preFader="false" sendOutputID="0" slotIndex="4">
            <component componentGuid="2e96cf70-2cab-4a52-9d28-506240b99201" id="sendComponent" powered="false">
              <parameter index="0" name="Power On/Off" parameterValue="0"/>
              <parameter index="1" name="Level" parameterValue="0"/>
            </component>
            <component id="sendPan" powered="true"/>
          </sendSlot>
          <sendSlot preFader="false" sendOutputID="0" slotIndex="5">
            <component componentGuid="78baeef0-8873-42c1-a30a-6b89c745ac01" id="sendComponent" powered="false">
              <parameter index="0" name="Power On/Off" parameterValue="0"/>
              <parameter index="1" name="Level" parameterValue="0"/>
            </component>
            <component id="sendPan" powered="true"/>
          </sendSlot>
          <sendSlot preFader="false" sendOutputID="0" slotIndex="6">
            <component componentGuid="b866721f-d5c2-4c2d-a4c7-000326c3e495" id="sendComponent" powered="false">
              <parameter index="0" name="Power On/Off" parameterValue="0"/>
              <parameter index="1" name="Level" parameterValue="0"/>
            </component>
            <component id="sendPan" powered="true"/>
          </sendSlot>
          <sendSlot preFader="false" sendOutputID="0" slotIndex="7">
            <component componentGuid="07890f57-6469-4183-82fd-c419d2301298" id="sendComponent" powered="false">
              <parameter index="0" name="Power On/Off" parameterValue="0"/>
              <parameter index="1" name="Level" parameterValue="0"/>
            </component>
            <component id="sendPan" powered="true"/>
          </sendSlot>
          <sendSlot preFader="false" sendOutputID="0" slotIndex="8">
            <component componentGuid="ace1a962-6cb5-4e0e-82f8-636961b2791a" id="sendComponent" powered="false">
              <parameter index="0" name="Power On/Off" parameterValue="0"/>
              <parameter index="1" name="Level" parameterValue="0"/>
            </component>
            <component id="sendPan" powered="true"/>
          </sendSlot>
          <sendSlot preFader="false" sendOutputID="0" slotIndex="9">
            <component componentGuid="faaae4c2-baa4-48fe-bf31-57d16ad3c1f6" id="sendComponent" powered="false">
              <parameter index="0" name="Power On/Off" parameterValue="0"/>
              <parameter index="1" name="Level" parameterValue="0"/>
            </component>
            <component id="sendPan" powered="true"/>
          </sendSlot>
          <sendSlot preFader="false" sendOutputID="0" slotIndex="10">
            <component componentGuid="b685851d-88ec-46e1-b389-3266267589e2" id="sendComponent" powered="false">
              <parameter index="0" name="Power On/Off" parameterValue="0"/>
              <parameter index="1" name="Level" parameterValue="0"/>
            </component>
            <component id="sendPan" powered="true"/>
          </sendSlot>
          <sendSlot preFader="false" sendOutputID="0" slotIndex="11">
            <component componentGuid="a284e735-52b2-40f4-9fe5-dd802c4d9c15" id="sendComponent" powered="false">
              <parameter index="0" name="Power On/Off" parameterValue="0"/>
              <parameter index="1" name="Level" parameterValue="0"/>
            </component>
            <component id="sendPan" powered="true"/>
          </sendSlot>
          <sendSlot preFader="false" sendOutputID="0" slotIndex="12">
            <component componentGuid="ca673c4c-c7f1-432d-934b-41db130e82fb" id="sendComponent" powered="false">
              <parameter index="0" name="Power On/Off" parameterValue="0"/>
              <parameter index="1" name="Level" parameterValue="0"/>
            </component>
            <component id="sendPan" powered="true"/>
          </sendSlot>
          <sendSlot preFader="false" sendOutputID="0" slotIndex="13">
            <component componentGuid="c92372ba-db8f-4835-aa05-ff0ce46f3671" id="sendComponent" powered="false">
              <parameter index="0" name="Power On/Off" parameterValue="0"/>
              <parameter index="1" name="Level" parameterValue="0"/>
            </component>
            <component id="sendPan" powered="true"/>
          </sendSlot>
          <sendSlot preFader="false" sendOutputID="0" slotIndex="14">
            <component componentGuid="a78b0146-9537-4359-959e-cc91f39cadd9" id="sendComponent" powered="false">
              <parameter index="0" name="Power On/Off" parameterValue="0"/>
              <parameter index="1" name="Level" parameterValue="0"/>
            </component>
            <component id="sendPan" powered="true"/>
          </sendSlot>
          <sendSlot preFader="false" sendOutputID="0" slotIndex="15">
            <component componentGuid="3be05d74-756d-4ddd-b7cf-76dbd54f1ffe" id="sendComponent" powered="false">
              <parameter index="0" name="Power On/Off" parameterValue="0"/>
              <parameter index="1" name="Level" parameterValue="0"/>
            </component>
            <component id="sendPan" powered="true"/>
          </sendSlot>
        </sendList>
        <audioClip clipAutoCrossfade="true" crossFadeHeadClipID="-1" crossFadeTailClipID="1" endPoint="392427" fileID="8" hue="-1" id="0" lockedInTime="false" looped="false" name="Track 5_019" offline="false" select="false" sourceInPoint="175892" sourceOutPoint="568319" startPoint="0" zOrder="94">
          <component componentGuid="9374f21a-30dc-4373-a5dc-bb0b287591f2" componentID="Audition.Fader" id="clipGain" name="volume" powered="true">
            <parameter index="0" name="volume" parameterValue="1"/>
            <parameter index="1" name="static gain" parameterValue="1"/>
          </component>
          <component componentGuid="b54da525-7066-4402-ae5a-7d1b05a40a84" componentID="Audition.Mute" id="clipMute" name="Mute" powered="true">
            <parameter index="0" parameterValue="0"/>
            <parameter index="1" name="mute" parameterValue="0"/>
          </component>
          <component componentGuid="47db72ff-b5ec-40cb-be31-8503df586542" componentID="Audition.StereoPanner" id="clipPan" name="StereoPanner" powered="true">
            <parameter index="0" name="Pan" parameterValue="0"/>
          </component>
          <fadeIn crossFadeLinkType="linkedAsymmetric" endPoint="0" shape="0" startPoint="0" type="cosine"/>
          <fadeOut crossFadeLinkType="linkedAsymmetric" endPoint="392427" shape="18" startPoint="390871" type="log"/>
          <editParameter parameterIndex="0" slotIndex="4294967281"/>
          <editParameter parameterIndex="0" slotIndex="4294967280"/>
          <channelMap>
            <channel index="0" sourceIndex="0"/>
          </channelMap>
        </audioClip>
        <audioClip clipAutoCrossfade="true" crossFadeHeadClipID="0" crossFadeTailClipID="-1" endPoint="466888" fileID="8" hue="-1" id="1" lockedInTime="false" looped="false" name="Track 5_019" offline="false" select="false" sourceInPoint="568319" sourceOutPoint="644336" startPoint="390871" zOrder="98">
          <component componentGuid="1beba0e8-36bd-4d51-8acc-9573e4fad685" componentID="Audition.Fader" id="clipGain" name="volume" powered="true">
            <parameter index="0" name="volume" parameterValue="1"/>
            <parameter index="1" name="static gain" parameterValue="1"/>
          </component>
          <component componentGuid="b203758c-28b7-4d2f-8306-4db9e51f5fab" componentID="Audition.Mute" id="clipMute" name="Mute" powered="true">
            <parameter index="0" parameterValue="0"/>
            <parameter index="1" name="mute" parameterValue="0"/>
          </component>
          <component componentGuid="94c281e1-e1d7-4af3-a1af-20b841e62442" componentID="Audition.StereoPanner" id="clipPan" name="StereoPanner" powered="true">
            <parameter index="0" name="Pan" parameterValue="0"/>
          </component>
          <fadeIn crossFadeLinkType="linkedAsymmetric" endPoint="1556" shape="19" startPoint="0" type="log"/>
          <fadeOut crossFadeLinkType="linkedAsymmetric" endPoint="76017" shape="0" startPoint="76017" type="cosine"/>
          <editParameter parameterIndex="0" slotIndex="4294967281"/>
          <editParameter parameterIndex="0" slotIndex="4294967280"/>
          <channelMap>
            <channel index="0" sourceIndex="0"/>
          </channelMap>
        </audioClip>
        <audioClip clipAutoCrossfade="true" crossFadeHeadClipID="-1" crossFadeTailClipID="-1" endPoint="672836" fileID="8" hue="-1" id="2" lockedInTime="false" looped="false" name="Track 5_019" offline="false" select="false" sourceInPoint="644336" sourceOutPoint="850284" startPoint="466888" zOrder="101">
          <component componentGuid="188cf23d-3a57-461b-9017-0c6e1c6d8b6d" componentID="Audition.Fader" id="clipGain" name="volume" powered="true">
            <parameter index="0" name="volume" parameterValue="1"/>
            <parameter index="1" name="static gain" parameterValue="1"/>
          </component>
          <component componentGuid="f651b208-25a9-42f9-a181-1cc7bd5b49d1" componentID="Audition.Mute" id="clipMute" name="Mute" powered="true">
            <parameter index="0" parameterValue="0"/>
            <parameter index="1" name="mute" parameterValue="0"/>
          </component>
          <component componentGuid="4c432da7-af71-4e9e-973d-7c771e131b7c" componentID="Audition.StereoPanner" id="clipPan" name="StereoPanner" powered="true">
            <parameter index="0" name="Pan" parameterValue="0"/>
          </component>
          <fadeIn crossFadeLinkType="linkedAsymmetric" endPoint="0" shape="0" startPoint="0" type="cosine"/>
          <fadeOut crossFadeLinkType="linkedAsymmetric" endPoint="205948" shape="0" startPoint="205948" type="cosine"/>
          <editParameter parameterIndex="0" slotIndex="4294967281"/>
          <editParameter parameterIndex="0" slotIndex="4294967280"/>
          <channelMap>
            <channel index="0" sourceIndex="0"/>
          </channelMap>
        </audioClip>
        <audioClip clipAutoCrossfade="true" crossFadeHeadClipID="-1" crossFadeTailClipID="-1" endPoint="1554698" fileID="9" hue="-1" id="3" lockedInTime="false" looped="false" name="Track 5_021" offline="false" select="true" sourceInPoint="225063" sourceOutPoint="834888" startPoint="944873" zOrder="501">
          <component componentGuid="63ac9e9f-d76f-4a23-acdc-dfd6e006f928" componentID="Audition.Fader" id="clipGain" name="volume" powered="true">
            <parameter index="0" name="volume" parameterValue="1"/>
            <parameter index="1" name="static gain" parameterValue="1"/>
          </component>
          <component componentGuid="cd3c7eaf-0f28-434a-b3bf-838628f33fe5" componentID="Audition.Mute" id="clipMute" name="Mute" powered="true">
            <parameter index="0" parameterValue="0"/>
            <parameter index="1" name="mute" parameterValue="0"/>
          </component>
          <component componentGuid="af19233a-a538-4687-bca4-ea91986d9f42" componentID="Audition.StereoPanner" id="clipPan" name="StereoPanner" powered="true">
            <parameter index="0" name="Pan" parameterValue="0"/>
          </component>
          <fadeIn crossFadeLinkType="linkedAsymmetric" endPoint="0" shape="0" startPoint="0" type="cosine"/>
          <fadeOut crossFadeLinkType="linkedAsymmetric" endPoint="609825" shape="0" startPoint="609825" type="cosine"/>
          <editParameter parameterIndex="0" slotIndex="4294967280"/>
          <editParameter parameterIndex="0" slotIndex="4294967281"/>
          <channelMap>
            <channel index="0" sourceIndex="0"/>
          </channelMap>
        </audioClip>
        <audioClip clipAutoCrossfade="true" crossFadeHeadClipID="-1" crossFadeTailClipID="-1" endPoint="1628905" fileID="9" hue="-1" id="4" lockedInTime="false" looped="false" name="Track 5_021" offline="false" select="true" sourceInPoint="834888" sourceOutPoint="909095" startPoint="1554698" zOrder="498">
          <component componentGuid="59714419-5e9e-4e72-8b52-3c71e14f05f4" componentID="Audition.Fader" id="clipGain" name="volume" powered="true">
            <parameter index="0" name="volume" parameterValue="1"/>
            <parameter index="1" name="static gain" parameterValue="1"/>
          </component>
          <component componentGuid="90bd7319-d253-4c45-91c4-648c9a076754" componentID="Audition.Mute" id="clipMute" name="Mute" powered="true">
            <parameter index="0" parameterValue="0"/>
            <parameter index="1" name="mute" parameterValue="0"/>
          </component>
          <component componentGuid="3a1384a4-3050-4485-aca4-67ec3673f0c7" componentID="Audition.StereoPanner" id="clipPan" name="StereoPanner" powered="true">
            <parameter index="0" name="Pan" parameterValue="0"/>
          </component>
          <fadeIn crossFadeLinkType="linkedAsymmetric" endPoint="0" shape="0" startPoint="0" type="cosine"/>
          <fadeOut crossFadeLinkType="linkedAsymmetric" endPoint="74207" shape="0" startPoint="74207" type="cosine"/>
          <editParameter parameterIndex="0" slotIndex="4294967281"/>
          <editParameter parameterIndex="0" slotIndex="4294967280"/>
          <channelMap>
            <channel index="0" sourceIndex="0"/>
          </channelMap>
        </audioClip>
        <audioClip clipAutoCrossfade="true" crossFadeHeadClipID="-1" crossFadeTailClipID="-1" endPoint="1680000" fileID="9" hue="-1" id="5" lockedInTime="false" looped="false" name="Track 5_021" offline="false" select="true" sourceInPoint="909095" sourceOutPoint="960190" startPoint="1628905" zOrder="253">
          <component componentGuid="a87cbd78-de4b-40c1-a212-5ad20f56d031" componentID="Audition.Fader" id="clipGain" name="volume" powered="true">
            <parameter index="0" name="volume" parameterValue="1"/>
            <parameter index="1" name="static gain" parameterValue="1"/>
          </component>
          <component componentGuid="4c8147ac-0292-4dfd-85bc-27efed665b31" componentID="Audition.Mute" id="clipMute" name="Mute" powered="true">
            <parameter index="0" parameterValue="0"/>
            <parameter index="1" name="mute" parameterValue="0"/>
          </component>
          <component componentGuid="2a1c91fc-cda5-4dfa-bc3f-dcda3a4175ed" componentID="Audition.StereoPanner" id="clipPan" name="StereoPanner" powered="true">
            <parameter index="0" name="Pan" parameterValue="0"/>
          </component>
          <fadeIn crossFadeLinkType="linkedAsymmetric" endPoint="0" shape="0" startPoint="0" type="cosine"/>
          <fadeOut crossFadeLinkType="linkedAsymmetric" endPoint="51095" shape="0" startPoint="51095" type="cosine"/>
          <editParameter parameterIndex="0" slotIndex="4294967281"/>
          <editParameter parameterIndex="0" slotIndex="4294967280"/>
          <channelMap>
            <channel index="0" sourceIndex="0"/>
          </channelMap>
        </audioClip>
      </audioTrack>
      <audioTrack automationLaneOpenState="false" id="10006" index="5" select="false" visible="true">
        <trackParameters trackHeight="108" trackHue="308.6039829254150391" trackMinimized="false">
          <name>Dialog 07 08</name>
        </trackParameters>
        <trackAudioParameters audioChannelType="stereo" automationMode="1" monitoring="false" recordArmed="false" solo="false" soloSafe="false">
          <trackOutput outputID="10000" type="trackID"/>
          <trackInput inputID="2"/>
          <component componentGuid="6df08ad5-6ba3-4852-824d-720efc7c08df" componentID="Audition.Fader" id="trackFader" name="volume" powered="true">
            <parameter index="0" name="volume" parameterValue="1"/>
            <parameter index="1" name="static gain" parameterValue="1"/>
          </component>
          <component componentGuid="53892867-973d-4f79-835a-e7d7ad833e2b" componentID="Audition.Mute" id="trackMute" name="Mute" powered="true">
            <parameter index="0" parameterValue="0"/>
            <parameter index="1" name="mute" parameterValue="1"/>
          </component>
          <component componentGuid="2dfbfd40-fb00-40f5-9892-d9f054db988e" componentID="Audition.StereoPanner" id="trackPan" name="StereoPanner" powered="true">
            <parameter index="0" name="Pan" parameterValue="0"/>
          </component>
          <component componentGuid="21defe3b-0c2d-49c6-afbd-f6ccc2aec2c2" componentID="Audition.EQ" id="trackEQ" name="EQ" powered="false">
            <parameter index="0" name="Low Shelf Frequency" parameterValue="0.000834"/>
            <parameter index="1" name="Low Shelf Gain" parameterValue="0.5"/>
            <parameter index="2" name="High Shelf Frequency" parameterValue="0.7497915"/>
            <parameter index="3" name="High Shelf Gain" parameterValue="0.5"/>
            <parameter index="4" name="EQ Band 1 Center Frequency" parameterValue="0.001251"/>
            <parameter index="5" name="EQ Band 1 Q" parameterValue="0.0002"/>
            <parameter index="6" name="EQ Band 1 Gain" parameterValue="0.5"/>
            <parameter index="7" name="EQ Band 1 Enable" parameterValue="1"/>
            <parameter index="8" name="EQ Band 2 Center Frequency" parameterValue="0.0075063"/>
            <parameter index="9" name="EQ Band 2 Q" parameterValue="0.0002"/>
            <parameter index="10" name="EQ Band 2 Gain" parameterValue="0.5"/>
            <parameter index="11" name="EQ Band 2 Enable" parameterValue="1"/>
            <parameter index="12" name="EQ Band 3 Center Frequency" parameterValue="0.0325271"/>
            <parameter index="13" name="EQ Band 3 Q" parameterValue="0.0002"/>
            <parameter index="14" name="EQ Band 3 Gain" parameterValue="0.5"/>
            <parameter index="15" name="EQ Band 3 Enable" parameterValue="1"/>
            <parameter index="16" name="EQ Band 4 Center Frequency" parameterValue="0.1326105"/>
            <parameter index="17" name="EQ Band 4 Q" parameterValue="0.0002"/>
            <parameter index="18" name="EQ Band 4 Gain" parameterValue="0.5"/>
            <parameter index="19" name="EQ Band 4 Enable" parameterValue="1"/>
            <parameter index="20" name="EQ Band 5 Center Frequency" parameterValue="0.5329441"/>
            <parameter index="21" name="EQ Band 5 Q" parameterValue="0.0002"/>
            <parameter index="22" name="EQ Band 5 Gain" parameterValue="0.5"/>
            <parameter index="23" name="EQ Band 5 Enable" parameterValue="1"/>
            <parameter index="24" name="Master Gain" parameterValue="0.6666667"/>
            <parameter index="25" name="ConstantQ" parameterValue="1"/>
            <parameter index="26" name="Low Shelf Filter Order" parameterValue="0"/>
            <parameter index="27" name="High Shelf Filter Order" parameterValue="0"/>
            <parameter index="28" name="Ultra-Quiet Mode" parameterValue="0"/>
            <parameter index="29" name="Low Shelf Enable" parameterValue="1"/>
            <parameter index="30" name="High Shelf Enable" parameterValue="1"/>
            <parameter index="31" name="Original Sample Rate" parameterValue="0.25"/>
            <parameter index="32" name="EQ Band 1 Bandwidth" parameterValue="0.0025"/>
            <parameter index="33" name="EQ Band 2 Bandwidth" parameterValue="0.01"/>
            <parameter index="34" name="EQ Band 3 Bandwidth" parameterValue="0.04"/>
            <parameter index="35" name="EQ Band 4 Bandwidth" parameterValue="0.16"/>
            <parameter index="36" name="EQ Band 5 Bandwidth" parameterValue="0.64"/>
            <parameter index="37" name="High-Pass Filter Enable" parameterValue="0"/>
            <parameter index="38" name="High-Pass Cutoff Frequency" parameterValue="0"/>
            <parameter index="39" name="High-Pass Slope" parameterValue="0.4"/>
            <parameter index="40" name="Low-Pass Filter Enable" parameterValue="0"/>
            <parameter index="41" name="Low-Pass Cutoff Frequency" parameterValue="0.8331943"/>
            <parameter index="42" name="Low-Pass Slope" parameterValue="0.4"/>
            <parameter index="43" name="Bypass" parameterValue="0"/>
            <parameter index="44" name="LowGraphRange" parameterValue="1"/>
          </component>
        </trackAudioParameters>
        <editParameter parameterIndex="0" slotIndex="4294967280"/>
        <sendList>
          <sendSlot preFader="false" sendOutputID="0" slotIndex="0">
            <component componentGuid="7444e3fa-ca9f-4207-b0fd-6447ec9f9760" id="sendComponent" powered="false">
              <parameter index="0" name="Power On/Off" parameterValue="0"/>
              <parameter index="1" name="Level" parameterValue="0"/>
            </component>
            <component id="sendPan" powered="true"/>
          </sendSlot>
          <sendSlot preFader="false" sendOutputID="0" slotIndex="1">
            <component componentGuid="3c5f645d-15df-4f9f-8355-238772b3a739" id="sendComponent" powered="false">
              <parameter index="0" name="Power On/Off" parameterValue="0"/>
              <parameter index="1" name="Level" parameterValue="0"/>
            </component>
            <component id="sendPan" powered="true"/>
          </sendSlot>
          <sendSlot preFader="false" sendOutputID="0" slotIndex="2">
            <component componentGuid="ccabd67c-f51e-4e40-8d80-3e87b40822ff" id="sendComponent" powered="false">
              <parameter index="0" name="Power On/Off" parameterValue="0"/>
              <parameter index="1" name="Level" parameterValue="0"/>
            </component>
            <component id="sendPan" powered="true"/>
          </sendSlot>
          <sendSlot preFader="false" sendOutputID="0" slotIndex="3">
            <component componentGuid="e10fc2d5-50b2-40fd-9894-123d513e82d4" id="sendComponent" powered="false">
              <parameter index="0" name="Power On/Off" parameterValue="0"/>
              <parameter index="1" name="Level" parameterValue="0"/>
            </component>
            <component id="sendPan" powered="true"/>
          </sendSlot>
          <sendSlot preFader="false" sendOutputID="0" slotIndex="4">
            <component componentGuid="25081156-eadd-465f-a761-5f5492675618" id="sendComponent" powered="false">
              <parameter index="0" name="Power On/Off" parameterValue="0"/>
              <parameter index="1" name="Level" parameterValue="0"/>
            </component>
            <component id="sendPan" powered="true"/>
          </sendSlot>
          <sendSlot preFader="false" sendOutputID="0" slotIndex="5">
            <component componentGuid="e5ccd7b5-5d5f-4b18-b769-8cc7cb9075c0" id="sendComponent" powered="false">
              <parameter index="0" name="Power On/Off" parameterValue="0"/>
              <parameter index="1" name="Level" parameterValue="0"/>
            </component>
            <component id="sendPan" powered="true"/>
          </sendSlot>
          <sendSlot preFader="false" sendOutputID="0" slotIndex="6">
            <component componentGuid="86956465-4059-4caf-b570-40ece4adc426" id="sendComponent" powered="false">
              <parameter index="0" name="Power On/Off" parameterValue="0"/>
              <parameter index="1" name="Level" parameterValue="0"/>
            </component>
            <component id="sendPan" powered="true"/>
          </sendSlot>
          <sendSlot preFader="false" sendOutputID="0" slotIndex="7">
            <component componentGuid="52169dbe-33db-4d78-b344-3d44d4300505" id="sendComponent" powered="false">
              <parameter index="0" name="Power On/Off" parameterValue="0"/>
              <parameter index="1" name="Level" parameterValue="0"/>
            </component>
            <component id="sendPan" powered="true"/>
          </sendSlot>
          <sendSlot preFader="false" sendOutputID="0" slotIndex="8">
            <component componentGuid="17274790-3737-420a-91e7-c2b90279fc8a" id="sendComponent" powered="false">
              <parameter index="0" name="Power On/Off" parameterValue="0"/>
              <parameter index="1" name="Level" parameterValue="0"/>
            </component>
            <component id="sendPan" powered="true"/>
          </sendSlot>
          <sendSlot preFader="false" sendOutputID="0" slotIndex="9">
            <component componentGuid="e0ce4c90-fe50-49ea-b6ea-933a565a62af" id="sendComponent" powered="false">
              <parameter index="0" name="Power On/Off" parameterValue="0"/>
              <parameter index="1" name="Level" parameterValue="0"/>
            </component>
            <component id="sendPan" powered="true"/>
          </sendSlot>
          <sendSlot preFader="false" sendOutputID="0" slotIndex="10">
            <component componentGuid="d7dc37c3-867c-4ad9-bf1d-1f6b736d2bd5" id="sendComponent" powered="false">
              <parameter index="0" name="Power On/Off" parameterValue="0"/>
              <parameter index="1" name="Level" parameterValue="0"/>
            </component>
            <component id="sendPan" powered="true"/>
          </sendSlot>
          <sendSlot preFader="false" sendOutputID="0" slotIndex="11">
            <component componentGuid="4ef2051e-d531-4c49-9dcb-11ac4a97fe49" id="sendComponent" powered="false">
              <parameter index="0" name="Power On/Off" parameterValue="0"/>
              <parameter index="1" name="Level" parameterValue="0"/>
            </component>
            <component id="sendPan" powered="true"/>
          </sendSlot>
          <sendSlot preFader="false" sendOutputID="0" slotIndex="12">
            <component componentGuid="513408ae-baac-470d-8ca0-a1cbf9127b07" id="sendComponent" powered="false">
              <parameter index="0" name="Power On/Off" parameterValue="0"/>
              <parameter index="1" name="Level" parameterValue="0"/>
            </component>
            <component id="sendPan" powered="true"/>
          </sendSlot>
          <sendSlot preFader="false" sendOutputID="0" slotIndex="13">
            <component componentGuid="316cfe11-4cd6-409c-89d6-7dc86d95a60d" id="sendComponent" powered="false">
              <parameter index="0" name="Power On/Off" parameterValue="0"/>
              <parameter index="1" name="Level" parameterValue="0"/>
            </component>
            <component id="sendPan" powered="true"/>
          </sendSlot>
          <sendSlot preFader="false" sendOutputID="0" slotIndex="14">
            <component componentGuid="240d179f-4823-411a-a86e-a5f3a6c22a37" id="sendComponent" powered="false">
              <parameter index="0" name="Power On/Off" parameterValue="0"/>
              <parameter index="1" name="Level" parameterValue="0"/>
            </component>
            <component id="sendPan" powered="true"/>
          </sendSlot>
          <sendSlot preFader="false" sendOutputID="0" slotIndex="15">
            <component componentGuid="b38f1ec2-290f-4392-917a-8c756ab2d773" id="sendComponent" powered="false">
              <parameter index="0" name="Power On/Off" parameterValue="0"/>
              <parameter index="1" name="Level" parameterValue="0"/>
            </component>
            <component id="sendPan" powered="true"/>
          </sendSlot>
        </sendList>
        <audioClip clipAutoCrossfade="true" crossFadeHeadClipID="-1" crossFadeTailClipID="-1" endPoint="25339" fileID="10" hue="-1" id="0" lockedInTime="false" looped="false" name="Track 6_022" offline="false" select="false" sourceInPoint="345933" sourceOutPoint="371272" startPoint="0" zOrder="12">
          <component componentGuid="8a9308a5-e635-4f4c-be4c-937791add90f" componentID="Audition.Fader" id="clipGain" name="volume" powered="true">
            <parameter index="0" name="volume" parameterValue="1"/>
            <parameter index="1" name="static gain" parameterValue="1"/>
          </component>
          <component componentGuid="38fcd965-1bb9-4646-93a6-2fac0c0ee8ab" componentID="Audition.Mute" id="clipMute" name="Mute" powered="true">
            <parameter index="0" parameterValue="0"/>
            <parameter index="1" name="mute" parameterValue="0"/>
          </component>
          <component componentGuid="50b125d2-4f69-4d85-811d-c2e7368245da" componentID="Audition.StereoPanner" id="clipPan" name="StereoPanner" powered="true">
            <parameter index="0" name="Pan" parameterValue="0"/>
          </component>
          <fadeIn crossFadeLinkType="linkedAsymmetric" endPoint="0" shape="0" startPoint="0" type="cosine"/>
          <fadeOut crossFadeLinkType="linkedAsymmetric" endPoint="25339" shape="0" startPoint="25339" type="cosine"/>
          <editParameter parameterIndex="0" slotIndex="4294967281"/>
          <editParameter parameterIndex="0" slotIndex="4294967280"/>
          <channelMap>
            <channel index="0" sourceIndex="0"/>
          </channelMap>
        </audioClip>
        <audioClip clipAutoCrossfade="true" crossFadeHeadClipID="-1" crossFadeTailClipID="-1" endPoint="466888" fileID="10" hue="-1" id="1" lockedInTime="false" looped="false" name="Track 6_022" offline="false" select="false" sourceInPoint="371272" sourceOutPoint="812821" startPoint="25339" zOrder="12">
          <component componentGuid="19894409-be85-4848-8b24-d8de63d04979" componentID="Audition.Fader" id="clipGain" name="volume" powered="true">
            <parameter index="0" name="volume" parameterValue="1"/>
            <parameter index="1" name="static gain" parameterValue="1"/>
          </component>
          <component componentGuid="19043ae8-c2ae-4422-a327-485750b611e1" componentID="Audition.Mute" id="clipMute" name="Mute" powered="true">
            <parameter index="0" parameterValue="0"/>
            <parameter index="1" name="mute" parameterValue="0"/>
          </component>
          <component componentGuid="19871e22-d993-4225-a9b8-fa73f71531f4" componentID="Audition.StereoPanner" id="clipPan" name="StereoPanner" powered="true">
            <parameter index="0" name="Pan" parameterValue="0"/>
          </component>
          <fadeIn crossFadeLinkType="linkedAsymmetric" endPoint="0" shape="0" startPoint="0" type="cosine"/>
          <fadeOut crossFadeLinkType="linkedAsymmetric" endPoint="441549" shape="0" startPoint="441549" type="cosine"/>
          <editParameter parameterIndex="0" slotIndex="4294967281"/>
          <editParameter parameterIndex="0" slotIndex="4294967280"/>
          <channelMap>
            <channel index="0" sourceIndex="0"/>
          </channelMap>
        </audioClip>
        <audioClip clipAutoCrossfade="true" crossFadeHeadClipID="-1" crossFadeTailClipID="-1" endPoint="1083882" fileID="11" hue="-1" id="2" lockedInTime="false" looped="false" name="Track 6_024" offline="false" select="false" sourceInPoint="236756" sourceOutPoint="770046" startPoint="550592" zOrder="91">
          <component componentGuid="b12f7d67-2a7d-4b43-89d7-eda42195a4f2" componentID="Audition.Fader" id="clipGain" name="volume" powered="true">
            <parameter index="0" name="volume" parameterValue="1"/>
            <parameter index="1" name="static gain" parameterValue="1"/>
          </component>
          <component componentGuid="65ba4f88-e861-48c1-a237-a28395c8f178" componentID="Audition.Mute" id="clipMute" name="Mute" powered="true">
            <parameter index="0" parameterValue="0"/>
            <parameter index="1" name="mute" parameterValue="0"/>
          </component>
          <component componentGuid="7023bf07-d310-44d5-8e6f-b8e11a335638" componentID="Audition.StereoPanner" id="clipPan" name="StereoPanner" powered="true">
            <parameter index="0" name="Pan" parameterValue="0"/>
          </component>
          <fadeIn crossFadeLinkType="linkedAsymmetric" endPoint="0" shape="0" startPoint="0" type="cosine"/>
          <fadeOut crossFadeLinkType="linkedAsymmetric" endPoint="533290" shape="0" startPoint="533290" type="cosine"/>
          <editParameter parameterIndex="0" slotIndex="4294967281"/>
          <editParameter parameterIndex="0" slotIndex="4294967280"/>
          <channelMap>
            <channel index="0" sourceIndex="0"/>
          </channelMap>
        </audioClip>
      </audioTrack>
      <audioTrack automationLaneOpenState="false" id="10003" index="6" select="false" visible="true">
        <trackParameters trackHeight="108" trackHue="296.27655029296875" trackMinimized="false">
          <name>Soundtrack??</name>
        </trackParameters>
        <trackAudioParameters audioChannelType="stereo" automationMode="1" monitoring="false" recordArmed="false" solo="false" soloSafe="false">
          <trackOutput outputID="10000" type="trackID"/>
          <trackInput inputID="2"/>
          <component componentGuid="f212639f-4ce8-44af-9277-72b79c47ed58" componentID="Audition.Fader" id="trackFader" name="volume" powered="true">
            <parameter index="0" name="volume" parameterValue="0.5623413"/>
            <parameter index="1" name="static gain" parameterValue="1"/>
          </component>
          <component componentGuid="11fca798-8eb9-4e29-9f55-672d3bb75de2" componentID="Audition.Mute" id="trackMute" name="Mute" powered="true">
            <parameter index="0" parameterValue="0"/>
            <parameter index="1" name="mute" parameterValue="0"/>
          </component>
          <component componentGuid="46366dd9-36f1-4fea-801c-f7f05b2bd160" componentID="Audition.StereoPanner" id="trackPan" name="StereoPanner" powered="true">
            <parameter index="0" name="Pan" parameterValue="0"/>
          </component>
          <component componentGuid="8372436d-7772-4c5d-ab76-63a7ebbfbd17" componentID="Audition.EQ" id="trackEQ" name="EQ" powered="false">
            <parameter index="0" name="Low Shelf Frequency" parameterValue="0.000834"/>
            <parameter index="1" name="Low Shelf Gain" parameterValue="0.5"/>
            <parameter index="2" name="High Shelf Frequency" parameterValue="0.7497915"/>
            <parameter index="3" name="High Shelf Gain" parameterValue="0.5"/>
            <parameter index="4" name="EQ Band 1 Center Frequency" parameterValue="0.001251"/>
            <parameter index="5" name="EQ Band 1 Q" parameterValue="0.0002"/>
            <parameter index="6" name="EQ Band 1 Gain" parameterValue="0.5"/>
            <parameter index="7" name="EQ Band 1 Enable" parameterValue="1"/>
            <parameter index="8" name="EQ Band 2 Center Frequency" parameterValue="0.0075063"/>
            <parameter index="9" name="EQ Band 2 Q" parameterValue="0.0002"/>
            <parameter index="10" name="EQ Band 2 Gain" parameterValue="0.5"/>
            <parameter index="11" name="EQ Band 2 Enable" parameterValue="1"/>
            <parameter index="12" name="EQ Band 3 Center Frequency" parameterValue="0.0325271"/>
            <parameter index="13" name="EQ Band 3 Q" parameterValue="0.0002"/>
            <parameter index="14" name="EQ Band 3 Gain" parameterValue="0.5"/>
            <parameter index="15" name="EQ Band 3 Enable" parameterValue="1"/>
            <parameter index="16" name="EQ Band 4 Center Frequency" parameterValue="0.1326105"/>
            <parameter index="17" name="EQ Band 4 Q" parameterValue="0.0002"/>
            <parameter index="18" name="EQ Band 4 Gain" parameterValue="0.5"/>
            <parameter index="19" name="EQ Band 4 Enable" parameterValue="1"/>
            <parameter index="20" name="EQ Band 5 Center Frequency" parameterValue="0.5329441"/>
            <parameter index="21" name="EQ Band 5 Q" parameterValue="0.0002"/>
            <parameter index="22" name="EQ Band 5 Gain" parameterValue="0.5"/>
            <parameter index="23" name="EQ Band 5 Enable" parameterValue="1"/>
            <parameter index="24" name="Master Gain" parameterValue="0.6666667"/>
            <parameter index="25" name="ConstantQ" parameterValue="1"/>
            <parameter index="26" name="Low Shelf Filter Order" parameterValue="0"/>
            <parameter index="27" name="High Shelf Filter Order" parameterValue="0"/>
            <parameter index="28" name="Ultra-Quiet Mode" parameterValue="0"/>
            <parameter index="29" name="Low Shelf Enable" parameterValue="1"/>
            <parameter index="30" name="High Shelf Enable" parameterValue="1"/>
            <parameter index="31" name="Original Sample Rate" parameterValue="0.25"/>
            <parameter index="32" name="EQ Band 1 Bandwidth" parameterValue="0.0025"/>
            <parameter index="33" name="EQ Band 2 Bandwidth" parameterValue="0.01"/>
            <parameter index="34" name="EQ Band 3 Bandwidth" parameterValue="0.04"/>
            <parameter index="35" name="EQ Band 4 Bandwidth" parameterValue="0.16"/>
            <parameter index="36" name="EQ Band 5 Bandwidth" parameterValue="0.64"/>
            <parameter index="37" name="High-Pass Filter Enable" parameterValue="0"/>
            <parameter index="38" name="High-Pass Cutoff Frequency" parameterValue="0"/>
            <parameter index="39" name="High-Pass Slope" parameterValue="0.4"/>
            <parameter index="40" name="Low-Pass Filter Enable" parameterValue="0"/>
            <parameter index="41" name="Low-Pass Cutoff Frequency" parameterValue="0.8331943"/>
            <parameter index="42" name="Low-Pass Slope" parameterValue="0.4"/>
            <parameter index="43" name="Bypass" parameterValue="0"/>
            <parameter index="44" name="LowGraphRange" parameterValue="1"/>
          </component>
        </trackAudioParameters>
        <editParameter parameterIndex="0" slotIndex="4294967280"/>
        <sendList>
          <sendSlot preFader="false" sendOutputID="0" slotIndex="0">
            <component componentGuid="44b3413d-9633-40aa-9c1f-a1105237b2e3" id="sendComponent" powered="false">
              <parameter index="0" name="Power On/Off" parameterValue="0"/>
              <parameter index="1" name="Level" parameterValue="0"/>
            </component>
            <component id="sendPan" powered="true"/>
          </sendSlot>
          <sendSlot preFader="false" sendOutputID="0" slotIndex="1">
            <component componentGuid="ed14b8f1-db5d-4207-aaa5-360318302bd6" id="sendComponent" powered="false">
              <parameter index="0" name="Power On/Off" parameterValue="0"/>
              <parameter index="1" name="Level" parameterValue="0"/>
            </component>
            <component id="sendPan" powered="true"/>
          </sendSlot>
          <sendSlot preFader="false" sendOutputID="0" slotIndex="2">
            <component componentGuid="7b4db7b4-bdcf-42dd-8cf1-167f21734e59" id="sendComponent" powered="false">
              <parameter index="0" name="Power On/Off" parameterValue="0"/>
              <parameter index="1" name="Level" parameterValue="0"/>
            </component>
            <component id="sendPan" powered="true"/>
          </sendSlot>
          <sendSlot preFader="false" sendOutputID="0" slotIndex="3">
            <component componentGuid="8668689a-8e84-417e-afaa-ebdc22aa22d4" id="sendComponent" powered="false">
              <parameter index="0" name="Power On/Off" parameterValue="0"/>
              <parameter index="1" name="Level" parameterValue="0"/>
            </component>
            <component id="sendPan" powered="true"/>
          </sendSlot>
          <sendSlot preFader="false" sendOutputID="0" slotIndex="4">
            <component componentGuid="843112fa-7b0d-481b-8499-47d30aff4652" id="sendComponent" powered="false">
              <parameter index="0" name="Power On/Off" parameterValue="0"/>
              <parameter index="1" name="Level" parameterValue="0"/>
            </component>
            <component id="sendPan" powered="true"/>
          </sendSlot>
          <sendSlot preFader="false" sendOutputID="0" slotIndex="5">
            <component componentGuid="529fc0b8-ddd6-4a94-96a7-5d58f57860cf" id="sendComponent" powered="false">
              <parameter index="0" name="Power On/Off" parameterValue="0"/>
              <parameter index="1" name="Level" parameterValue="0"/>
            </component>
            <component id="sendPan" powered="true"/>
          </sendSlot>
          <sendSlot preFader="false" sendOutputID="0" slotIndex="6">
            <component componentGuid="d828f4ab-d0f3-4ec4-bb89-9f19b36b8c09" id="sendComponent" powered="false">
              <parameter index="0" name="Power On/Off" parameterValue="0"/>
              <parameter index="1" name="Level" parameterValue="0"/>
            </component>
            <component id="sendPan" powered="true"/>
          </sendSlot>
          <sendSlot preFader="false" sendOutputID="0" slotIndex="7">
            <component componentGuid="8c630ed2-0df6-4fba-900b-33510ed30944" id="sendComponent" powered="false">
              <parameter index="0" name="Power On/Off" parameterValue="0"/>
              <parameter index="1" name="Level" parameterValue="0"/>
            </component>
            <component id="sendPan" powered="true"/>
          </sendSlot>
          <sendSlot preFader="false" sendOutputID="0" slotIndex="8">
            <component componentGuid="179b69be-05d7-45c2-b493-f88fe520020a" id="sendComponent" powered="false">
              <parameter index="0" name="Power On/Off" parameterValue="0"/>
              <parameter index="1" name="Level" parameterValue="0"/>
            </component>
            <component id="sendPan" powered="true"/>
          </sendSlot>
          <sendSlot preFader="false" sendOutputID="0" slotIndex="9">
            <component componentGuid="7ceb168f-4f14-45e6-8fa0-5ce5a6db9d1e" id="sendComponent" powered="false">
              <parameter index="0" name="Power On/Off" parameterValue="0"/>
              <parameter index="1" name="Level" parameterValue="0"/>
            </component>
            <component id="sendPan" powered="true"/>
          </sendSlot>
          <sendSlot preFader="false" sendOutputID="0" slotIndex="10">
            <component componentGuid="e38ed727-3f3c-40c4-8c0e-339d87a3730b" id="sendComponent" powered="false">
              <parameter index="0" name="Power On/Off" parameterValue="0"/>
              <parameter index="1" name="Level" parameterValue="0"/>
            </component>
            <component id="sendPan" powered="true"/>
          </sendSlot>
          <sendSlot preFader="false" sendOutputID="0" slotIndex="11">
            <component componentGuid="09eaafc8-8db8-417a-a63d-31dab7013f07" id="sendComponent" powered="false">
              <parameter index="0" name="Power On/Off" parameterValue="0"/>
              <parameter index="1" name="Level" parameterValue="0"/>
            </component>
            <component id="sendPan" powered="true"/>
          </sendSlot>
          <sendSlot preFader="false" sendOutputID="0" slotIndex="12">
            <component componentGuid="43c1b687-8e3c-47be-852c-ae45ebf83aaa" id="sendComponent" powered="false">
              <parameter index="0" name="Power On/Off" parameterValue="0"/>
              <parameter index="1" name="Level" parameterValue="0"/>
            </component>
            <component id="sendPan" powered="true"/>
          </sendSlot>
          <sendSlot preFader="false" sendOutputID="0" slotIndex="13">
            <component componentGuid="a494a2e2-ace5-4f7b-8468-11353829b9f7" id="sendComponent" powered="false">
              <parameter index="0" name="Power On/Off" parameterValue="0"/>
              <parameter index="1" name="Level" parameterValue="0"/>
            </component>
            <component id="sendPan" powered="true"/>
          </sendSlot>
          <sendSlot preFader="false" sendOutputID="0" slotIndex="14">
            <component componentGuid="aa07496a-bba1-46bd-8b1f-b4bc8033b860" id="sendComponent" powered="false">
              <parameter index="0" name="Power On/Off" parameterValue="0"/>
              <parameter index="1" name="Level" parameterValue="0"/>
            </component>
            <component id="sendPan" powered="true"/>
          </sendSlot>
          <sendSlot preFader="false" sendOutputID="0" slotIndex="15">
            <component componentGuid="d06304d3-3306-4bd4-a550-e8b645e4d46f" id="sendComponent" powered="false">
              <parameter index="0" name="Power On/Off" parameterValue="0"/>
              <parameter index="1" name="Level" parameterValue="0"/>
            </component>
            <component id="sendPan" powered="true"/>
          </sendSlot>
        </sendList>
        <audioClip clipAutoCrossfade="true" crossFadeHeadClipID="-1" crossFadeTailClipID="1" endPoint="550592" fileID="12" hue="-1" id="0" lockedInTime="false" looped="false" name="Soundtrack--_025" offline="false" select="false" sourceInPoint="1184092" sourceOutPoint="1734684" startPoint="0" zOrder="49">
          <component componentGuid="b94cc6d4-23af-4c3d-b32e-d359928dff2a" componentID="Audition.Fader" id="clipGain" name="volume" powered="true">
            <parameter index="0" name="volume" parameterValue="1"/>
            <parameter index="1" name="static gain" parameterValue="1"/>
          </component>
          <component componentGuid="7a479bf2-b49d-4a21-837c-b4902bc853e3" componentID="Audition.Mute" id="clipMute" name="Mute" powered="true">
            <parameter index="0" parameterValue="0"/>
            <parameter index="1" name="mute" parameterValue="0"/>
          </component>
          <component componentGuid="ab33ef92-386d-47e6-9897-50abef4f4e19" componentID="Audition.StereoPanner" id="clipPan" name="StereoPanner" powered="true">
            <parameter index="0" name="Pan" parameterValue="0"/>
          </component>
          <fadeIn crossFadeLinkType="linkedAsymmetric" endPoint="0" shape="0" startPoint="0" type="cosine"/>
          <fadeOut crossFadeLinkType="linkedAsymmetric" endPoint="550592" shape="26" startPoint="538729" type="log"/>
          <editParameter parameterIndex="0" slotIndex="4294967281"/>
          <editParameter parameterIndex="0" slotIndex="4294967280"/>
          <channelMap>
            <channel index="0" sourceIndex="0"/>
            <channel index="1" sourceIndex="1"/>
          </channelMap>
        </audioClip>
        <audioClip clipAutoCrossfade="true" crossFadeHeadClipID="0" crossFadeTailClipID="2" endPoint="1906168" fileID="12" hue="-1" id="1" lockedInTime="false" looped="false" name="Soundtrack--_025" offline="false" select="false" sourceInPoint="1803089" sourceOutPoint="3170528" startPoint="538729" zOrder="62">
          <component componentGuid="1ec6602f-9663-4bca-bb14-c187086b242e" componentID="Audition.Fader" id="clipGain" name="volume" powered="true">
            <parameter index="0" name="volume" parameterValue="1">
              <parameterKeyframes enableSplines="false">
                <parameterKeyframe sampleOffset="2239283" select="false" type="linear" value="0.65"/>
                <parameterKeyframe sampleOffset="2264622" select="true" type="linear" value="0.4789473"/>
                <parameterKeyframe sampleOffset="2289961" select="false" type="linear" value="0.65"/>
              </parameterKeyframes>
            </parameter>
            <parameter index="1" name="static gain" parameterValue="1"/>
          </component>
          <component componentGuid="b0ed20eb-a082-40cc-908f-5d86d92ed7de" componentID="Audition.Mute" id="clipMute" name="Mute" powered="true">
            <parameter index="0" parameterValue="0"/>
            <parameter index="1" name="mute" parameterValue="0"/>
          </component>
          <component componentGuid="bdc67bb2-c094-46e7-b16e-80e86286a9c5" componentID="Audition.StereoPanner" id="clipPan" name="StereoPanner" powered="true">
            <parameter index="0" name="Pan" parameterValue="0"/>
          </component>
          <fadeIn crossFadeLinkType="linkedAsymmetric" endPoint="11863" shape="12" startPoint="0" type="log"/>
          <fadeOut crossFadeLinkType="linkedAsymmetric" endPoint="1367439" shape="26" startPoint="1333271" type="log"/>
          <editParameter parameterIndex="0" slotIndex="4294967281"/>
          <editParameter parameterIndex="0" slotIndex="4294967280"/>
          <channelMap>
            <channel index="0" sourceIndex="0"/>
            <channel index="1" sourceIndex="1"/>
          </channelMap>
        </audioClip>
        <audioClip clipAutoCrossfade="true" crossFadeHeadClipID="1" crossFadeTailClipID="-1" endPoint="3186012" fileID="12" hue="-1" id="2" lockedInTime="false" looped="false" name="Soundtrack--_025" offline="false" select="false" sourceInPoint="3217914" sourceOutPoint="4531926" startPoint="1872000" zOrder="90">
          <component componentGuid="7c629a3a-4363-445a-a2a0-0e08da9c5483" componentID="Audition.Fader" id="clipGain" name="volume" powered="true">
            <parameter index="0" name="volume" parameterValue="1">
              <parameterKeyframes enableSplines="false">
                <parameterKeyframe sampleOffset="2239283" select="false" type="linear" value="0.65"/>
                <parameterKeyframe sampleOffset="2264622" select="false" type="linear" value="0.4789473"/>
                <parameterKeyframe sampleOffset="2289961" select="false" type="linear" value="0.65"/>
              </parameterKeyframes>
            </parameter>
            <parameter index="1" name="static gain" parameterValue="1"/>
          </component>
          <component componentGuid="8d244123-68e7-4632-9993-55dd417bd07b" componentID="Audition.Mute" id="clipMute" name="Mute" powered="true">
            <parameter index="0" parameterValue="0"/>
            <parameter index="1" name="mute" parameterValue="0"/>
          </component>
          <component componentGuid="136e1229-ba8a-4d8d-a289-23481eb6bff1" componentID="Audition.StereoPanner" id="clipPan" name="StereoPanner" powered="true">
            <parameter index="0" name="Pan" parameterValue="0"/>
          </component>
          <fadeIn crossFadeLinkType="linkedAsymmetric" endPoint="34168" shape="12" startPoint="0" type="log"/>
          <fadeOut crossFadeLinkType="linkedAsymmetric" endPoint="1314012" shape="0" startPoint="1314012" type="cosine"/>
          <editParameter parameterIndex="0" slotIndex="4294967280"/>
          <editParameter parameterIndex="0" slotIndex="4294967281"/>
          <channelMap>
            <channel index="0" sourceIndex="0"/>
            <channel index="1" sourceIndex="1"/>
          </channelMap>
        </audioClip>
      </audioTrack>
      <masterTrack automationLaneOpenState="false" id="10000" index="7" select="false" visible="true">
        <trackParameters trackHeight="108" trackHue="-1" trackMinimized="false">
          <name>Master</name>
        </trackParameters>
        <trackAudioParameters audioChannelType="stereo" automationMode="1" monitoring="false" recordArmed="false" solo="false" soloSafe="true">
          <trackOutput outputID="1" type="hardwareOutput"/>
          <trackInput inputID="-1"/>
          <component componentGuid="ee288ead-c554-44f3-b255-893a384142c8" componentID="Audition.Fader" id="trackFader" name="volume" powered="true">
            <parameter index="0" name="volume" parameterValue="1"/>
            <parameter index="1" name="static gain" parameterValue="1"/>
          </component>
          <component componentGuid="241bfe33-5c55-4400-9f87-10c30d188af0" componentID="Audition.Mute" id="trackMute" name="Mute" powered="true">
            <parameter index="0" parameterValue="0"/>
            <parameter index="1" name="mute" parameterValue="0"/>
          </component>
          <component componentGuid="f4b03c14-44c1-4f4c-8e7f-b3e5645ef813" componentID="Audition.StereoPanner" id="trackPan" name="StereoPanner" powered="true">
            <parameter index="0" name="Pan" parameterValue="0"/>
          </component>
          <component componentGuid="f10e8aa3-c324-4912-b9dd-ec8d87485ca0" componentID="Audition.EQ" id="trackEQ" name="EQ" powered="false">
            <parameter index="0" name="Low Shelf Frequency" parameterValue="0.000834"/>
            <parameter index="1" name="Low Shelf Gain" parameterValue="0.5"/>
            <parameter index="2" name="High Shelf Frequency" parameterValue="0.7497915"/>
            <parameter index="3" name="High Shelf Gain" parameterValue="0.5"/>
            <parameter index="4" name="EQ Band 1 Center Frequency" parameterValue="0.001251"/>
            <parameter index="5" name="EQ Band 1 Q" parameterValue="0.0002"/>
            <parameter index="6" name="EQ Band 1 Gain" parameterValue="0.5"/>
            <parameter index="7" name="EQ Band 1 Enable" parameterValue="1"/>
            <parameter index="8" name="EQ Band 2 Center Frequency" parameterValue="0.0075063"/>
            <parameter index="9" name="EQ Band 2 Q" parameterValue="0.0002"/>
            <parameter index="10" name="EQ Band 2 Gain" parameterValue="0.5"/>
            <parameter index="11" name="EQ Band 2 Enable" parameterValue="1"/>
            <parameter index="12" name="EQ Band 3 Center Frequency" parameterValue="0.0325271"/>
            <parameter index="13" name="EQ Band 3 Q" parameterValue="0.0002"/>
            <parameter index="14" name="EQ Band 3 Gain" parameterValue="0.5"/>
            <parameter index="15" name="EQ Band 3 Enable" parameterValue="1"/>
            <parameter index="16" name="EQ Band 4 Center Frequency" parameterValue="0.1326105"/>
            <parameter index="17" name="EQ Band 4 Q" parameterValue="0.0002"/>
            <parameter index="18" name="EQ Band 4 Gain" parameterValue="0.5"/>
            <parameter index="19" name="EQ Band 4 Enable" parameterValue="1"/>
            <parameter index="20" name="EQ Band 5 Center Frequency" parameterValue="0.5329441"/>
            <parameter index="21" name="EQ Band 5 Q" parameterValue="0.0002"/>
            <parameter index="22" name="EQ Band 5 Gain" parameterValue="0.5"/>
            <parameter index="23" name="EQ Band 5 Enable" parameterValue="1"/>
            <parameter index="24" name="Master Gain" parameterValue="0.6666667"/>
            <parameter index="25" name="ConstantQ" parameterValue="1"/>
            <parameter index="26" name="Low Shelf Filter Order" parameterValue="0"/>
            <parameter index="27" name="High Shelf Filter Order" parameterValue="0"/>
            <parameter index="28" name="Ultra-Quiet Mode" parameterValue="0"/>
            <parameter index="29" name="Low Shelf Enable" parameterValue="1"/>
            <parameter index="30" name="High Shelf Enable" parameterValue="1"/>
            <parameter index="31" name="Original Sample Rate" parameterValue="0.25"/>
            <parameter index="32" name="EQ Band 1 Bandwidth" parameterValue="0.0025"/>
            <parameter index="33" name="EQ Band 2 Bandwidth" parameterValue="0.01"/>
            <parameter index="34" name="EQ Band 3 Bandwidth" parameterValue="0.04"/>
            <parameter index="35" name="EQ Band 4 Bandwidth" parameterValue="0.16"/>
            <parameter index="36" name="EQ Band 5 Bandwidth" parameterValue="0.64"/>
            <parameter index="37" name="High-Pass Filter Enable" parameterValue="0"/>
            <parameter index="38" name="High-Pass Cutoff Frequency" parameterValue="0"/>
            <parameter index="39" name="High-Pass Slope" parameterValue="0.4"/>
            <parameter index="40" name="Low-Pass Filter Enable" parameterValue="0"/>
            <parameter index="41" name="Low-Pass Cutoff Frequency" parameterValue="0.8331943"/>
            <parameter index="42" name="Low-Pass Slope" parameterValue="0.4"/>
            <parameter index="43" name="Bypass" parameterValue="0"/>
            <parameter index="44" name="LowGraphRange" parameterValue="1"/>
          </component>
        </trackAudioParameters>
        <editParameter parameterIndex="0" slotIndex="4294967280"/>
      </masterTrack>
    </tracks>
    <sessionState ctiPosition="759785" smpteStart="0">
      <selectionState selectionDuration="0" selectionStart="759785"/>
      <viewState horizontalViewDuration="3140061" horizontalViewStart="0" trackControlsWidth="224" verticalScrollOffset="0"/>
      <timeFormatState beatsPerBar="4" beatsPerMinute="120" customFrameRate="12" linkToDefaultTimeSettings="true" noteLength="4" subdivisions="16" timeCodeDropFrame="false" timeCodeFrameRate="30" timeCodeNTSC="false" timeFormat="timeFormatDecimal"/>
      <mixingOptionState defaultPanModeLogarithmic="false" panPower="-3"/>
    </sessionState>
    <xmpMetadata><![CDATA[<?xpacket begin="﻿" id="W5M0MpCehiHzreSzNTczkc9d"?>
<x:xmpmeta xmlns:x="adobe:ns:meta/" x:xmptk="Adobe XMP Core 5.6-c140 79.160302, 2017/03/02-16:59:38        ">
   <rdf:RDF xmlns:rdf="http://www.w3.org/1999/02/22-rdf-syntax-ns#">
      <rdf:Description rdf:about=""
            xmlns:xmp="http://ns.adobe.com/xap/1.0/"
            xmlns:xmpMM="http://ns.adobe.com/xap/1.0/mm/"
            xmlns:stEvt="http://ns.adobe.com/xap/1.0/sType/ResourceEvent#"
            xmlns:stRef="http://ns.adobe.com/xap/1.0/sType/ResourceRef#"
            xmlns:dc="http://purl.org/dc/elements/1.1/"
            xmlns:xmpDM="http://ns.adobe.com/xmp/1.0/DynamicMedia/">
         <xmp:CreatorTool>Adobe Audition CC 2017.1 (Windows)</xmp:CreatorTool>
         <xmp:CreateDate>2018-05-21T11:37:42+12:00</xmp:CreateDate>
         <xmp:MetadataDate>2018-05-21T12:38:37+12:00</xmp:MetadataDate>
         <xmp:ModifyDate>2018-05-21T12:38:37+12:00</xmp:ModifyDate>
         <xmpMM:InstanceID>xmp.iid:268e7c93-5da7-d14f-b0d0-e7371fd86a7d</xmpMM:InstanceID>
         <xmpMM:DocumentID>xmp.did:268e7c93-5da7-d14f-b0d0-e7371fd86a7d</xmpMM:DocumentID>
         <xmpMM:OriginalDocumentID>xmp.did:96294dbd-cd9d-624f-b3f5-ef1285abb634</xmpMM:OriginalDocumentID>
         <xmpMM:History>
            <rdf:Seq>
               <rdf:li rdf:parseType="Resource">
                  <stEvt:action>saved</stEvt:action>
                  <stEvt:instanceID>xmp.iid:96294dbd-cd9d-624f-b3f5-ef1285abb634</stEvt:instanceID>
                  <stEvt:when>2018-05-21T11:37:42+12:00</stEvt:when>
                  <stEvt:softwareAgent>Adobe Audition CC 2017.1 (Windows)</stEvt:softwareAgent>
                  <stEvt:changed>/metadata</stEvt:changed>
               </rdf:li>
               <rdf:li rdf:parseType="Resource">
                  <stEvt:action>saved</stEvt:action>
                  <stEvt:instanceID>xmp.iid:eb769a1a-a25c-b944-9a94-278cfa89fcd0</stEvt:instanceID>
                  <stEvt:when>2018-05-21T12:38:37+12:00</stEvt:when>
                  <stEvt:softwareAgent>Adobe Audition CC 2017.1 (Windows)</stEvt:softwareAgent>
                  <stEvt:changed>/metadata</stEvt:changed>
               </rdf:li>
               <rdf:li rdf:parseType="Resource">
                  <stEvt:action>saved</stEvt:action>
                  <stEvt:instanceID>xmp.iid:268e7c93-5da7-d14f-b0d0-e7371fd86a7d</stEvt:instanceID>
                  <stEvt:when>2018-05-21T12:38:37+12:00</stEvt:when>
                  <stEvt:softwareAgent>Adobe Audition CC 2017.1 (Windows)</stEvt:softwareAgent>
                  <stEvt:changed>/</stEvt:changed>
               </rdf:li>
            </rdf:Seq>
         </xmpMM:History>
         <xmpMM:DerivedFrom rdf:parseType="Resource">
            <stRef:instanceID>xmp.iid:eb769a1a-a25c-b944-9a94-278cfa89fcd0</stRef:instanceID>
            <stRef:documentID>xmp.did:96294dbd-cd9d-624f-b3f5-ef1285abb634</stRef:documentID>
            <stRef:originalDocumentID>xmp.did:96294dbd-cd9d-624f-b3f5-ef1285abb634</stRef:originalDocumentID>
         </xmpMM:DerivedFrom>
         <dc:format>application/xml</dc:format>
         <xmpDM:Tracks>
            <rdf:Bag>
               <rdf:li rdf:parseType="Resource">
                  <xmpDM:trackName>CuePoint Markers</xmpDM:trackName>
                  <xmpDM:trackType>Cue</xmpDM:trackType>
                  <xmpDM:frameRate>f48000</xmpDM:frameRate>
               </rdf:li>
               <rdf:li rdf:parseType="Resource">
                  <xmpDM:trackName>CD Track Markers</xmpDM:trackName>
                  <xmpDM:trackType>Track</xmpDM:trackType>
                  <xmpDM:frameRate>f48000</xmpDM:frameRate>
               </rdf:li>
               <rdf:li rdf:parseType="Resource">
                  <xmpDM:trackName>Subclip Markers</xmpDM:trackName>
                  <xmpDM:trackType>InOut</xmpDM:trackType>
                  <xmpDM:frameRate>f48000</xmpDM:frameRate>
               </rdf:li>
            </rdf:Bag>
         </xmpDM:Tracks>
      </rdf:Description>
   </rdf:RDF>
</x:xmpmeta>
                                                                                                    
                                                                                                    
                                                                                                    
                                                                                                    
                                                                                                    
                                                                                                    
                                                                                                    
                                                                                                    
                                                                                                    
                                                                                                    
                                                                                                    
                                                                                                    
                                                                                                    
                                                                                                    
                                                                                                    
                                                                                                    
                                                                                                    
                                                                                                    
                                                                                                    
                                                                                                    
                           
<?xpacket end="w"?>]]></xmpMetadata>
    <clipGroups/>
    <metronome enabled="false" pattern="downBeat subdivision subdivision subdivision " soundSet="sticks">
      <metronomeTrack automationLaneOpenState="false" id="40000" index="0" select="false" visible="false">
        <trackParameters trackHeight="77" trackHue="-1" trackMinimized="false">
          <name>Metronome</name>
        </trackParameters>
        <trackAudioParameters audioChannelType="mono" automationMode="1" monitoring="false" recordArmed="false" solo="false" soloSafe="true">
          <trackOutput outputID="10000" type="trackID"/>
          <trackInput inputID="-1"/>
          <component componentGuid="6af4ad25-47cd-4c65-a1fd-bed68850aa50" componentID="Audition.Fader" id="trackFader" name="volume" powered="true">
            <parameter index="0" name="volume" parameterValue="0.5011872"/>
            <parameter index="1" name="static gain" parameterValue="1"/>
          </component>
          <component componentGuid="18bfce28-c110-46bb-be20-552f464059f4" componentID="Audition.Mute" id="trackMute" name="Mute" powered="true">
            <parameter index="0" parameterValue="0"/>
            <parameter index="1" name="mute" parameterValue="0"/>
          </component>
          <component componentGuid="eb5b89b2-f4b4-4b04-84b1-99f2dc0c01eb" componentID="Audition.StereoPanner" id="trackPan" name="StereoPanner" powered="true">
            <parameter index="0" name="Pan" parameterValue="0"/>
          </component>
          <component componentGuid="926cd6a4-ecef-4320-a938-39f00fa94ece" componentID="Audition.EQ" id="trackEQ" name="EQ" powered="false">
            <parameter index="0" name="Low Shelf Frequency" parameterValue="0.000834"/>
            <parameter index="1" name="Low Shelf Gain" parameterValue="0.5"/>
            <parameter index="2" name="High Shelf Frequency" parameterValue="0.7497915"/>
            <parameter index="3" name="High Shelf Gain" parameterValue="0.5"/>
            <parameter index="4" name="EQ Band 1 Center Frequency" parameterValue="0.001251"/>
            <parameter index="5" name="EQ Band 1 Q" parameterValue="0.0002"/>
            <parameter index="6" name="EQ Band 1 Gain" parameterValue="0.5"/>
            <parameter index="7" name="EQ Band 1 Enable" parameterValue="1"/>
            <parameter index="8" name="EQ Band 2 Center Frequency" parameterValue="0.0075063"/>
            <parameter index="9" name="EQ Band 2 Q" parameterValue="0.0002"/>
            <parameter index="10" name="EQ Band 2 Gain" parameterValue="0.5"/>
            <parameter index="11" name="EQ Band 2 Enable" parameterValue="1"/>
            <parameter index="12" name="EQ Band 3 Center Frequency" parameterValue="0.0325271"/>
            <parameter index="13" name="EQ Band 3 Q" parameterValue="0.0002"/>
            <parameter index="14" name="EQ Band 3 Gain" parameterValue="0.5"/>
            <parameter index="15" name="EQ Band 3 Enable" parameterValue="1"/>
            <parameter index="16" name="EQ Band 4 Center Frequency" parameterValue="0.1326105"/>
            <parameter index="17" name="EQ Band 4 Q" parameterValue="0.0002"/>
            <parameter index="18" name="EQ Band 4 Gain" parameterValue="0.5"/>
            <parameter index="19" name="EQ Band 4 Enable" parameterValue="1"/>
            <parameter index="20" name="EQ Band 5 Center Frequency" parameterValue="0.5329441"/>
            <parameter index="21" name="EQ Band 5 Q" parameterValue="0.0002"/>
            <parameter index="22" name="EQ Band 5 Gain" parameterValue="0.5"/>
            <parameter index="23" name="EQ Band 5 Enable" parameterValue="1"/>
            <parameter index="24" name="Master Gain" parameterValue="0.6666667"/>
            <parameter index="25" name="ConstantQ" parameterValue="1"/>
            <parameter index="26" name="Low Shelf Filter Order" parameterValue="0"/>
            <parameter index="27" name="High Shelf Filter Order" parameterValue="0"/>
            <parameter index="28" name="Ultra-Quiet Mode" parameterValue="0"/>
            <parameter index="29" name="Low Shelf Enable" parameterValue="1"/>
            <parameter index="30" name="High Shelf Enable" parameterValue="1"/>
            <parameter index="31" name="Original Sample Rate" parameterValue="0.25"/>
            <parameter index="32" name="EQ Band 1 Bandwidth" parameterValue="0.0025"/>
            <parameter index="33" name="EQ Band 2 Bandwidth" parameterValue="0.01"/>
            <parameter index="34" name="EQ Band 3 Bandwidth" parameterValue="0.04"/>
            <parameter index="35" name="EQ Band 4 Bandwidth" parameterValue="0.16"/>
            <parameter index="36" name="EQ Band 5 Bandwidth" parameterValue="0.64"/>
            <parameter index="37" name="High-Pass Filter Enable" parameterValue="0"/>
            <parameter index="38" name="High-Pass Cutoff Frequency" parameterValue="0"/>
            <parameter index="39" name="High-Pass Slope" parameterValue="0.4"/>
            <parameter index="40" name="Low-Pass Filter Enable" parameterValue="0"/>
            <parameter index="41" name="Low-Pass Cutoff Frequency" parameterValue="0.8331943"/>
            <parameter index="42" name="Low-Pass Slope" parameterValue="0.4"/>
            <parameter index="43" name="Bypass" parameterValue="0"/>
            <parameter index="44" name="LowGraphRange" parameterValue="1"/>
          </component>
        </trackAudioParameters>
        <editParameter parameterIndex="0" slotIndex="4294967280"/>
        <sendList>
          <sendSlot preFader="false" sendOutputID="0" slotIndex="0">
            <component componentGuid="01b27a0b-a311-47f5-8881-7bfb466298b2" id="sendComponent" powered="false">
              <parameter index="0" name="Power On/Off" parameterValue="0"/>
              <parameter index="1" name="Level" parameterValue="0"/>
            </component>
            <component id="sendPan" powered="true"/>
          </sendSlot>
          <sendSlot preFader="false" sendOutputID="0" slotIndex="1">
            <component componentGuid="4453d21e-2302-4621-b404-9cd2469cdec9" id="sendComponent" powered="false">
              <parameter index="0" name="Power On/Off" parameterValue="0"/>
              <parameter index="1" name="Level" parameterValue="0"/>
            </component>
            <component id="sendPan" powered="true"/>
          </sendSlot>
          <sendSlot preFader="false" sendOutputID="0" slotIndex="2">
            <component componentGuid="1bf7764e-40c7-4b64-b559-5243190da883" id="sendComponent" powered="false">
              <parameter index="0" name="Power On/Off" parameterValue="0"/>
              <parameter index="1" name="Level" parameterValue="0"/>
            </component>
            <component id="sendPan" powered="true"/>
          </sendSlot>
          <sendSlot preFader="false" sendOutputID="0" slotIndex="3">
            <component componentGuid="c66d4a13-ea98-4b6a-a990-dfd6f41e9f83" id="sendComponent" powered="false">
              <parameter index="0" name="Power On/Off" parameterValue="0"/>
              <parameter index="1" name="Level" parameterValue="0"/>
            </component>
            <component id="sendPan" powered="true"/>
          </sendSlot>
          <sendSlot preFader="false" sendOutputID="0" slotIndex="4">
            <component componentGuid="93c70fe5-d20a-4055-a366-b855d3ea5691" id="sendComponent" powered="false">
              <parameter index="0" name="Power On/Off" parameterValue="0"/>
              <parameter index="1" name="Level" parameterValue="0"/>
            </component>
            <component id="sendPan" powered="true"/>
          </sendSlot>
          <sendSlot preFader="false" sendOutputID="0" slotIndex="5">
            <component componentGuid="8ef6dbb0-534c-4be2-bea8-fd76e06fae15" id="sendComponent" powered="false">
              <parameter index="0" name="Power On/Off" parameterValue="0"/>
              <parameter index="1" name="Level" parameterValue="0"/>
            </component>
            <component id="sendPan" powered="true"/>
          </sendSlot>
          <sendSlot preFader="false" sendOutputID="0" slotIndex="6">
            <component componentGuid="68d54030-2d7e-48ec-9ea7-1f7db00c2e43" id="sendComponent" powered="false">
              <parameter index="0" name="Power On/Off" parameterValue="0"/>
              <parameter index="1" name="Level" parameterValue="0"/>
            </component>
            <component id="sendPan" powered="true"/>
          </sendSlot>
          <sendSlot preFader="false" sendOutputID="0" slotIndex="7">
            <component componentGuid="a8643e7b-3277-42aa-90b8-66a98f04a300" id="sendComponent" powered="false">
              <parameter index="0" name="Power On/Off" parameterValue="0"/>
              <parameter index="1" name="Level" parameterValue="0"/>
            </component>
            <component id="sendPan" powered="true"/>
          </sendSlot>
          <sendSlot preFader="false" sendOutputID="0" slotIndex="8">
            <component componentGuid="ea59db3e-ac73-4fba-8a2a-af16b6391cd9" id="sendComponent" powered="false">
              <parameter index="0" name="Power On/Off" parameterValue="0"/>
              <parameter index="1" name="Level" parameterValue="0"/>
            </component>
            <component id="sendPan" powered="true"/>
          </sendSlot>
          <sendSlot preFader="false" sendOutputID="0" slotIndex="9">
            <component componentGuid="6f35f85a-6eab-4ac8-a29c-a4ae05072229" id="sendComponent" powered="false">
              <parameter index="0" name="Power On/Off" parameterValue="0"/>
              <parameter index="1" name="Level" parameterValue="0"/>
            </component>
            <component id="sendPan" powered="true"/>
          </sendSlot>
          <sendSlot preFader="false" sendOutputID="0" slotIndex="10">
            <component componentGuid="00fd1f74-74bd-4a15-a2af-ec3a22bd79f4" id="sendComponent" powered="false">
              <parameter index="0" name="Power On/Off" parameterValue="0"/>
              <parameter index="1" name="Level" parameterValue="0"/>
            </component>
            <component id="sendPan" powered="true"/>
          </sendSlot>
          <sendSlot preFader="false" sendOutputID="0" slotIndex="11">
            <component componentGuid="59f3ae0c-6524-4edb-b87b-0cc40b36996e" id="sendComponent" powered="false">
              <parameter index="0" name="Power On/Off" parameterValue="0"/>
              <parameter index="1" name="Level" parameterValue="0"/>
            </component>
            <component id="sendPan" powered="true"/>
          </sendSlot>
          <sendSlot preFader="false" sendOutputID="0" slotIndex="12">
            <component componentGuid="1e6918eb-2a27-4dfa-98e9-e0f63ea16947" id="sendComponent" powered="false">
              <parameter index="0" name="Power On/Off" parameterValue="0"/>
              <parameter index="1" name="Level" parameterValue="0"/>
            </component>
            <component id="sendPan" powered="true"/>
          </sendSlot>
          <sendSlot preFader="false" sendOutputID="0" slotIndex="13">
            <component componentGuid="930cdeae-db30-4d3b-82a0-0f7a204e84bd" id="sendComponent" powered="false">
              <parameter index="0" name="Power On/Off" parameterValue="0"/>
              <parameter index="1" name="Level" parameterValue="0"/>
            </component>
            <component id="sendPan" powered="true"/>
          </sendSlot>
          <sendSlot preFader="false" sendOutputID="0" slotIndex="14">
            <component componentGuid="bbd7f35b-16dc-4c65-8936-12b5b2efb156" id="sendComponent" powered="false">
              <parameter index="0" name="Power On/Off" parameterValue="0"/>
              <parameter index="1" name="Level" parameterValue="0"/>
            </component>
            <component id="sendPan" powered="true"/>
          </sendSlot>
          <sendSlot preFader="false" sendOutputID="0" slotIndex="15">
            <component componentGuid="dfb3b7f5-c4ad-4542-8136-028399f80745" id="sendComponent" powered="false">
              <parameter index="0" name="Power On/Off" parameterValue="0"/>
              <parameter index="1" name="Level" parameterValue="0"/>
            </component>
            <component id="sendPan" powered="true"/>
          </sendSlot>
        </sendList>
      </metronomeTrack>
    </metronome>
    <properties>
      <property key="EssentialSoundConfigurations">[{"Guid":"a8b40e3e-13e7-4c1f-b382-96058f1f691d","Name":"$$$/app/Presets/DefaultPresetName=(Default)","PresetData":{"ModeID":"ambience","Models":{"model_loudness":{"DefaultLoudness":{"type":"float","value":-30},"LoudnessStandard":{"type":"std::uint32_t","value":0},"MaxLoudness":{"type":"float","value":-12},"MinLoudness":{"type":"float","value":-35}},"model_soundeffects":{"ReverbPresets":{"type":"tree::any","value":{"$$$/app/Presets/EssentialSound/ReverbPreset/LargeRoomAmbience=Large Room Ambience":{"type":"array::float","value":[0.051507499068975449,0.32432401180267334,0.29292899370193481,0.30000001192092896,0.20000000298023224,0,0.14285700023174286,0.40000000596046448,0.5,0.69999998807907104,0.30000001192092896,0.25125628709793091,0.03125]},"$$$/app/Presets/EssentialSound/ReverbPreset/OutsideAmbience=Outside Ambience":{"type":"array::float","value":[0.091708503663539886,0.043893899768590927,1,0.5,0.20000000298023224,0.80000001192092896,0.18367299437522888,1,0.5,0,0.80000001192092896,0.25125628709793091,0.03125]},"$$$/app/Presets/EssentialSound/ReverbPreset/RoomAmbience=Room Ambience":{"type":"array::float","value":[0.057788901031017303,0.44944900274276733,0.49494898319244385,0.89999997615814209,0.10000000149011612,0.15000000596046448,0.081632703542709351,0.40000000596046448,0.5,0.80000001192092896,0.20000000298023224,0.25125628709793091,0.03125]},"$$$/app/Presets/EssentialSound/ReverbPreset/WindEffect=Wind Effect":{"type":"array::float","value":[0.19597999751567841,0.6896899938583374,0.69696998596191406,0.25,0.5,0.5,0.23469400405883789,0.51999998092651367,0.5,0.75,0.25,0.25125628709793091,0.03125]}}}},"model_stereowidth":{},"model_volume":{"MaxGain":{"type":"float","value":6},"MinGain":{"type":"float","value":-15}}}},"Type":"1c19ca71-c24c-49cd-8dd5-2cc46018507a","Version":1},{"Guid":"58dc27a8-6a2a-480c-bd0c-4b45fff346a6","Name":"$$$/app/Presets/DefaultPresetName=(Default)","PresetData":{"ModeID":"dialog","Models":{"model_clarity":{"EQPresets":{"type":"tree::any","value":{"$$$/app/Presets/EssentialSound/EQPreset/BackgroundVoice=Background Voice":{"type":"array::float","value":[0.12099699676036835,0.5,0.39240506291389465,0,0.5,0.5,0.5,0.5,0.5,0.47827938199043274,0.45772689580917358,0.45778733491897583,0.47946760058403015,0.5,0]},"$$$/app/Presets/EssentialSound/EQPreset/Intercom=Intercom":{"type":"array::float","value":[0.19432899355888367,0.5,1,0,0.071499988436698914,0.071499988436698914,0.071499988436698914,0.40238627791404724,0.48571401834487915,0.5,0.55155748128890991,0.59602576494216919,0.22246670722961426,0.071499988436698914,0]},"$$$/app/Presets/EssentialSound/EQPreset/LockedInTheTrunk=Locked in the Trunk":{"type":"array::float","value":[0.12099699676036835,0.5,0.79746836423873901,0,0.5,0.5,0.5,0.5,0.5,0.32846158742904663,0.15721426904201508,0.15721426904201508,0.15721426904201508,0.15721426904201508,0]},"$$$/app/Presets/EssentialSound/EQPreset/OldRadio=Old Radio":{"type":"array::float","value":[0.12099699676036835,0.5,0.79746836423873901,0,0.15721426904201508,0.15721426904201508,0.15721426904201508,0.28442040085792542,0.48315632343292236,0.36498492956161499,0.52853888273239136,0.43511500954627991,0.27154684066772461,0.15721426904201508,0]},"$$$/app/Presets/EssentialSound/EQPreset/OnTheTelephone=On the Telephone":{"type":"array::float","value":[0.12099699676036835,0.5,0.39240506291389465,0,0.32864287495613098,0.32864287495613098,0.32864287495613098,0.32864287495613098,0.48571401834487915,0.53071397542953491,0.53071397542953491,0.48357096314430237,0.32864287495613098,0.32864287495613098,0]},"$$$/app/Presets/EssentialSound/EQPreset/OutsideOfTheRoom=Outside of the Room":{"type":"array::float","value":[0.12099699676036835,0.5,0.79746836423873901,0,0.42539370059967041,0.47865453362464905,0.5,0.5,0.48571401834487915,0.40073278546333313,0.25656309723854065,0.15721426904201508,0.15721426904201508,0.15721426904201508,0]},"$$$/app/Presets/EssentialSound/EQPreset/PodcastVoice=Podcast Voice":{"type":"array::float","value":[0.12099699676036835,0.5,0.39240506291389465,0,0.5,0.5,0.5,0.51789408922195435,0.50770342350006104,0.5,0.51789408922195435,0.528114914894104,0.5102812647819519,0.5,0]},"$$$/app/Presets/EssentialSound/EQPreset/SubtleBoostFemale=Subtle Boost (Female)":{"type":"array::float","value":[0.096553400158882141,0.5,0.29113924503326416,0,0.5,0.5,0.5,0.5,0.5,0.51933407783508301,0.54642897844314575,0.52706766128540039,0.5,0.5,0]},"$$$/app/Presets/EssentialSound/EQPreset/SubtleBoostMale=Subtle Boost (Male)":{"type":"array::float","value":[0.096553400158882141,0.5,0.29113924503326416,0,0.5,0.5,0.5,0.5,0.5,0.5135338306427002,0.54642897844314575,0.51933407783508301,0.5,0.5,0]},"$$$/app/Presets/EssentialSound/EQPreset/ThatPublicRadioSound=That Public Radio Sound":{"type":"array::float","value":[0.12099699676036835,0.5,0.79746836423873901,0,0.15721426904201508,0.15721426904201508,0.15721426904201508,0.36334344744682312,0.49468311667442322,0.5,0.5,0.5,0.5,0.5,0]},"$$$/app/Presets/EssentialSound/EQPreset/VocalPresence=Vocal Presence":{"type":"array::float","value":[0.096553400158882141,0.5,0.32489451766014099,0,0.3572143018245697,0.3572143018245697,0.46428570151329041,0.47857141494750977,0.4763694703578949,0.49570354819297791,0.55924957990646362,0.56523394584655762,0.50859290361404419,0.46992480754852295,0]}}}},"model_loudness":{"DefaultLoudness":{"type":"float","value":-23},"LoudnessStandard":{"type":"std::uint32_t","value":0},"MaxLoudness":{"type":"float","value":-12},"MinLoudness":{"type":"float","value":-35}},"model_restoration":{"ReduceNoiseMaxSetting":{"type":"array::float","value":[0.60000002384185791,0.40000000596046448,0.5,0.5,0.2465750128030777,0.60000002384185791,2048,0,0]},"ReduceNoiseMinSetting":{"type":"array::float","value":[0.375,0.20000000298023224,0.60000002384185791,0.5625,0.10958899557590485,0.30000001192092896,512,0,0]},"ReduceRumbleMaxSetting":{"type":"array::float","value":[1,0.084112152457237244,0.375,0,0,0.00083333335351198912,1,0,1,0.0390625,0.00083408987848088145,0,0.0041666668839752674,0.00022554649331141263,0.0046875001862645149,0.75,0.0052083334885537624,0.75,1,0.75,0.0040520834736526012,0.75,0.0042629167437553406,0.00022554649331141263,0.0064883334562182426,0.00022554649331141263,0.006866666954010725,0.75,0.0071704164147377014,0.00022554649331141263,0.01041458360850811,0.00022554649331141263,0.010900000110268593,0.75,0.011407917365431786,0.00022554649331141263,0.015606249682605267,0.00022554649331141263,0.016333334147930145,0.75,0.017094582319259644,0.00022554649331141263,0.026243748143315315,0.00022554649331141263,0.0274666678160429,0.75,0.028746666386723518,0.00022554649331141263,0.041658751666545868,0.00022554649331141263,0.043600000441074371,0.75,0.045631669461727142,0.00022554649331141263,0.062424581497907639,0.00022554649331141263,0.065333336591720581,0.75,0.068377502262592316,0.00022554649331141263,0.10497540980577469,0.00022554649331141263,0.1098666712641716,0.75,0.11498583108186722,0.00022554649331141263,0.16663584113121033,0.00022554649331141263,0.17440000176429749,0.75,0.18252624571323395,0.00022554649331141263,0.91874998807907104,0.00022554649331141263,1,0.00022554649331141263,0,0,0,0,0,0,0,0,0,0,0,0,0,0,0,0,0,0,0,0,0,0,0,0,0,0,0,0,0,0,0,0,0,0,0,0,0,0,0,0,0,0,0,0,0,0,0,0,0,0,0,0,0,0,0,0,0,0,0,0,0,0,0,0,0,0,0,0,0,0,0,0,0,0,0,0,0,0,0,0,0,0,0,0,0,0,0,0,0,0,0,0,0,0,0,0,0,0,0,0,0,0,0,0,0,0,0,0,0,0,0,0,0,0,0,0,0,0,0,0,0,0,0,0,0,0,0,0,0,0,0,0,0,0,0,0,0,0,0,0,0,0,0,0,0,0,0,0,0,0,0,0,0,0,0,0,0,0,0,0,0,0,0,0,0,0,0,0,0,0,0,0,0,0,0,0,0,0,0,0,0,0,0,0,0,0,0,0,0,0]},"ReduceRumbleMinSetting":{"type":"array::float","value":[1,0.084112152457237244,0.375,0,0,0.00083333335351198912,1,0,1,0.0390625,0.00083408987848088145,0.75,0.0041666668839752674,0.75,0.0046875001862645149,0.75,0.0052083334885537624,0.75,1,0.75,0.91874998807907104,0.61237245798110962,1,0.61237245798110962,0,0,0,0,0,0,0,0,0,0,0,0,0,0,0,0,0,0,0,0,0,0,0,0,0,0,0,0,0,0,0,0,0,0,0,0,0,0,0,0,0,0,0,0,0,0,0,0,0,0,0,0,0,0,0,0,0,0,0,0,0,0,0,0,0,0,0,0,0,0,0,0,0,0,0,0,0,0,0,0,0,0,0,0,0,0,0,0,0,0,0,0,0,0,0,0,0,0,0,0,0,0,0,0,0,0,0,0,0,0,0,0,0,0,0,0,0,0,0,0,0,0,0,0,0,0,0,0,0,0,0,0,0,0,0,0,0,0,0,0,0,0,0,0,0,0,0,0,0,0,0,0,0,0,0,0,0,0,0,0,0,0,0,0,0,0,0,0,0,0,0,0,0,0,0,0,0,0,0,0,0,0,0,0,0,0,0,0,0,0,0,0,0,0,0,0,0,0,0,0,0,0,0,0,0,0,0,0,0,0,0,0,0,0,0,0,0,0,0,0,0,0,0,0,0,0,0,0,0,0,0,0,0,0,0,0,0,0,0,0,0,0]},"ReduceSibilanceMaxSetting":{"type":"array::float","value":[0.5,0.19983997941017151,0.18367347121238708,0.26086956262588501,0.52702701091766357,0,1,0,0,0,0,0.75,1,1,0.40000000596046448]},"ReduceSibilanceMinSetting":{"type":"array::float","value":[0.875,0.19983997941017151,0.18367347121238708,0.19130434095859528,0.25675675272941589,0,1,0,0,0,0,0.75,1,1,0.40000000596046448]}},"model_soundeffects":{"ReverbPresets":{"type":"tree::any","value":{"$$$/app/Presets/EssentialSound/ReverbPreset/Auditorium=Auditorium":{"type":"array::float","value":[0.013047545216977596,0.15895412862300873,1,0.89999997615814209,0,0.52007436752319336,0.41663265228271484,0.46000000834465027,0.5,0.73000001907348633,0.15999999642372131,0.75376886129379272,0.03125]},"$$$/app/Presets/EssentialSound/ReverbPreset/Church=Church":{"type":"array::float","value":[0.032663315534591675,0.39939939975738525,0.79797977209091187,0.25,0.5,0.5,0.2297959178686142,0.72000002861022949,0.5,0.62999999523162842,0.87999999523162842,0.25125628709793091,0.03125]},"$$$/app/Presets/EssentialSound/ReverbPreset/LargeReflectiveRoom=Large Reflective Room":{"type":"array::float","value":[0.0074449013918638229,0.098988421261310577,0.79890537261962891,0.89999997615814209,0.10000000149011612,0.40110713243484497,0.060284845530986786,0.27522978186607361,0.5,0.73000001907348633,0.31999999284744263,0.25125628709793091,0.03125]},"$$$/app/Presets/EssentialSound/ReverbPreset/OutsideTheClub=Outside the Club":{"type":"array::float","value":[0.020615793764591217,0.050136558711528778,0.69696998596191406,0.25,0.094355784356594086,0.22242647409439087,0.1071428582072258,0.2800000011920929,0.5,0.73000001907348633,0.46000000834465027,0.25125628709793091,0.03125]},"$$$/app/Presets/EssentialSound/ReverbPreset/SmallDryRoom=Small Dry Room":{"type":"array::float","value":[0.24623115360736847,0.69975000619888306,0.29292899370193481,0.40000000596046448,0.20000000298023224,0.40000000596046448,0.039285715669393539,0.10000000149011612,0.5,1,0.5,0.75376886129379272,0.03125]},"$$$/app/Presets/EssentialSound/ReverbPreset/ThickenVoice=Thicken Voice":{"type":"array::float","value":[0.19597999751567841,0.23931467533111572,0.69696998596191406,0.25,0.5,0.53999996185302734,0.020408162847161293,0.20945435762405396,0.5,1,0.34999999403953552,0.25125628709793091,0.03125]},"$$$/app/Presets/EssentialSound/ReverbPreset/WarmRoom=Warm Room":{"type":"array::float","value":[0.020100502297282219,0.074074074625968933,0.49494948983192444,0.40000000596046448,0.74960309267044067,0.40000000596046448,0.1239795908331871,0.67000001668930054,0.5,0.85000002384185791,0.56000000238418579,0.25125628709793091,0.03125]},"$$$/app/Presets/EssentialSound/ReverbPreset/WarmVoice=Warm Voice":{"type":"array::float","value":[0.19597989320755005,0.89989989995956421,0,0.40000000596046448,0.20000000298023224,0.40000000596046448,0.10204081982374191,0.090000003576278687,0.5,1,0.30000001192092896,0.25125628709793091,0.03125]}}}},"model_volume":{"MaxGain":{"type":"float","value":6},"MinGain":{"type":"float","value":-15}}}},"Type":"1c19ca71-c24c-49cd-8dd5-2cc46018507a","Version":1},{"Guid":"31ba96a6-5d3e-4d89-b1e1-1dbe3c055d0c","Name":"$$$/app/Presets/DefaultPresetName=(Default)","PresetData":{"ModeID":"music","Models":{"model_duration":{},"model_loudness":{"DefaultLoudness":{"type":"float","value":-25},"LoudnessStandard":{"type":"std::uint32_t","value":0},"MaxLoudness":{"type":"float","value":-12},"MinLoudness":{"type":"float","value":-35}},"model_volume":{"MaxGain":{"type":"float","value":6},"MinGain":{"type":"float","value":-15}}}},"Type":"1c19ca71-c24c-49cd-8dd5-2cc46018507a","Version":1},{"Guid":"cea63332-1adc-44a9-a6eb-5490f965859b","Name":"$$$/app/Presets/DefaultPresetName=(Default)","PresetData":{"ModeID":"sfx","Models":{"model_loudness":{"DefaultLoudness":{"type":"float","value":-21},"LoudnessStandard":{"type":"std::uint32_t","value":0},"MaxLoudness":{"type":"float","value":-12},"MinLoudness":{"type":"float","value":-35}},"model_pan":{},"model_soundeffects":{"ReverbPresets":{"type":"tree::any","value":{"$$$/app/Presets/EssentialSound/ReverbPreset/HeavyReverb=Heavy Reverb":{"type":"array::float","value":[0.13316600024700165,0.29929900169372559,1,0.95999997854232788,0.85000002384185791,0.5,0.51530599594116211,0.30000001192092896,0.5,0.5,0.5,0.25125628709793091,0.0625]},"$$$/app/Presets/EssentialSound/ReverbPreset/LightReverb=Light Reverb":{"type":"array::float","value":[0.095477402210235596,0.29929900169372559,0.090909101068973541,1,1,0.80000001192092896,0.22449000179767609,0.60000002384185791,0.5,0.69999998807907104,0.30000001192092896,0.25125628709793091,0.0625]},"$$$/app/Presets/EssentialSound/ReverbPreset/OutsideReverb=Outside Reverb":{"type":"array::float","value":[0.091708503663539886,0.043893899768590927,1,0.5,0.20000000298023224,0.80000001192092896,0.18367299437522888,1,0.5,0,0.80000001192092896,0.25125628709793091,0.0625]},"$$$/app/Presets/EssentialSound/ReverbPreset/RoomReverb=Room Reverb":{"type":"array::float","value":[0.057788901031017303,0.44944900274276733,0.49494898319244385,0.89999997615814209,0.10000000149011612,0.15000000596046448,0.081632703542709351,0.40000000596046448,0.5,0.80000001192092896,0.20000000298023224,0.25125628709793091,0.0625]}}}},"model_volume":{"MaxGain":{"type":"float","value":6},"MinGain":{"type":"float","value":-15}}}},"Type":"1c19ca71-c24c-49cd-8dd5-2cc46018507a","Version":1}]</property>
    </properties>
  </session>

  <files>
    <file absolutePath="C:\Users\284587708\Desktop\SG raw sound\SG RAW sound\Untitled Session 1\Untitled Session 1_Recorded\Alphabet_007.wav" id="0" mediaHandler="AmioWav" recoveryID="0f2342ee-d670-428a-9691-5866b88deed0" relativePath="../Untitled Session 1_Recorded/Alphabet_007.wav"/>
    <file absolutePath="C:\Users\284587708\Desktop\SG raw sound\SG RAW sound\Untitled Session 1\Untitled Session 1_Recorded\Alphabet_008.wav" id="1" mediaHandler="AmioWav" recoveryID="cb8a44c8-c848-4247-806f-4e004f705642" relativePath="../Untitled Session 1_Recorded/Alphabet_008.wav"/>
    <file absolutePath="C:\Users\284587708\Desktop\SG raw sound\SG RAW sound\Untitled Session 1\Untitled Session 1_Recorded\Alphabet_009.wav" id="2" mediaHandler="AmioWav" recoveryID="15c978bb-b90d-4c29-94d5-c13c915bc57d" relativePath="../Untitled Session 1_Recorded/Alphabet_009.wav"/>
    <file absolutePath="C:\Users\284587708\Desktop\SG raw sound\SG RAW sound\Untitled Session 1\Untitled Session 1_Recorded\Alphabet_010.wav" id="3" mediaHandler="AmioWav" recoveryID="2ca1e2e5-1634-43ba-abfd-b8bc92fc2376" relativePath="../Untitled Session 1_Recorded/Alphabet_010.wav"/>
    <file absolutePath="C:\Users\284587708\Desktop\SG raw sound\SG RAW sound\Untitled Session 1\Untitled Session 1_Recorded\Dialog_012.wav" id="4" mediaHandler="AmioWav" recoveryID="8a10d43e-be42-4008-9785-8dcd578c49eb" relativePath="../Untitled Session 1_Recorded/Dialog_012.wav"/>
    <file absolutePath="C:\Users\284587708\Desktop\SG raw sound\SG RAW sound\Untitled Session 1\Untitled Session 1_Recorded\Dialog_013.wav" id="5" mediaHandler="AmioWav" recoveryID="1c3a543d-85f8-4c30-8c8e-53b237990bda" relativePath="../Untitled Session 1_Recorded/Dialog_013.wav"/>
    <file absolutePath="C:\Users\284587708\Desktop\SG raw sound\SG RAW sound\Untitled Session 1\Untitled Session 1_Recorded\Track 4_016.wav" id="6" mediaHandler="AmioWav" recoveryID="ba761b2f-0d74-4e06-ad98-698faac77216" relativePath="../Untitled Session 1_Recorded/Track 4_016.wav"/>
    <file absolutePath="C:\Users\284587708\Desktop\SG raw sound\SG RAW sound\Untitled Session 1\Untitled Session 1_Recorded\Track 4_017.wav" id="7" mediaHandler="AmioWav" recoveryID="691794f0-f41a-45ce-a258-ca340e82e0f9" relativePath="../Untitled Session 1_Recorded/Track 4_017.wav"/>
    <file absolutePath="C:\Users\284587708\Desktop\SG raw sound\SG RAW sound\Untitled Session 1\Untitled Session 1_Recorded\Track 5_019.wav" id="8" mediaHandler="AmioWav" recoveryID="7a4aeaae-45b1-421e-a578-59c9f4f0f422" relativePath="../Untitled Session 1_Recorded/Track 5_019.wav"/>
    <file absolutePath="C:\Users\284587708\Desktop\SG raw sound\SG RAW sound\Untitled Session 1\Untitled Session 1_Recorded\Track 5_021.wav" id="9" mediaHandler="AmioWav" recoveryID="a5a7abb2-1b42-423a-98b7-f6c237639972" relativePath="../Untitled Session 1_Recorded/Track 5_021.wav"/>
    <file absolutePath="C:\Users\284587708\Desktop\SG raw sound\SG RAW sound\Untitled Session 1\Untitled Session 1_Recorded\Track 6_022.wav" id="10" mediaHandler="AmioWav" recoveryID="78dad71c-804e-4de7-b530-349981e5d0cf" relativePath="../Untitled Session 1_Recorded/Track 6_022.wav"/>
    <file absolutePath="C:\Users\284587708\Desktop\SG raw sound\SG RAW sound\Untitled Session 1\Untitled Session 1_Recorded\Track 6_024.wav" id="11" mediaHandler="AmioWav" recoveryID="cade4e1e-5c35-443a-b74c-8364da1ec051" relativePath="../Untitled Session 1_Recorded/Track 6_024.wav"/>
    <file absolutePath="C:\Users\284587708\Desktop\SG raw sound\SG RAW sound\Untitled Session 1\Untitled Session 1_Recorded\Soundtrack--_025.wav" id="12" mediaHandler="AmioWav" recoveryID="77aebc44-991e-4955-9b9e-ff006e3b9370" relativePath="../Untitled Session 1_Recorded/Soundtrack--_025.wav"/>
  </files>

  <audioDevice inputID="B78B8A43-2585-4B35-8EC5-00E63A77815F" outputID="C1A8992B-8947-454F-AF20-B8760613F215">
    <inputPort id="1" name="Default Stereo Input"/>
    <inputPort id="2" name="[01M] Line In (Scarlett 6i6 USB) 1"/>
    <inputPort id="3" name="[02M] Line In (Scarlett 6i6 USB) 2"/>
    <inputPort id="4" name="[01S] Line In (Scarlett 6i6 USB) 1"/>
    <outputPort id="1" name="Default Output"/>
    <outputPort id="2" name="[01M] Line Out (Scarlett 6i6 USB) 1"/>
    <outputPort id="3" name="[02M] Line Out (Scarlett 6i6 USB) 2"/>
    <outputPort id="4" name="Default Stereo Output"/>
    <outputPort id="5" name="[01S] Line Out (Scarlett 6i6 USB) 1"/>
    <outputPort id="6" name="Default Surround Output"/>
  </audioDevice>

</sesx>
